<svg width="120" height="80" viewBox="0 0 120 80" fill="none" xmlns="http://www.w3.org/2000/svg">
<path d="M15.3293 34.5725C11.8793 34.5725 9.47472 33.4225 7.33153 30.9657L6.80881 30.3384C6.4429 29.8157 6.07699 29.7634 5.92017 30.2862C5.60653 31.1225 5.08381 33.1089 4.77017 34.1543C4.66562 34.4157 4.45653 34.6248 4.24744 34.6248C4.03835 34.6248 3.67244 34.5202 3.67244 34.1021V33.9975C3.67244 33.7884 3.82926 30.1816 3.82926 28.7702V27.7771C3.82926 24.3271 3.51562 22.1316 3.51562 20.8248C3.51562 20.4589 3.77699 20.2498 4.03835 20.2498C4.29972 20.2498 4.56108 20.4066 4.61335 20.8248C4.87472 21.8702 5.13608 23.3339 5.50199 24.7452C6.02472 26.7316 6.70426 28.4043 8.06335 30.0248C9.99744 32.3248 12.2974 33.3702 15.3815 33.3702C18.8315 33.3702 22.1247 31.5407 22.1247 27.7248C22.1247 25.4248 20.5565 24.118 18.7793 23.2816C16.7929 22.393 14.0747 21.6089 11.5656 20.668C9.00426 19.7271 6.65199 18.5248 5.2929 17.0089C4.19517 15.8066 3.5679 13.768 3.5679 11.6771C3.5679 8.74979 4.66562 6.44979 6.54744 4.98615C7.90653 3.9407 9.73608 3.41797 11.4611 3.41797C12.977 3.41797 14.4929 3.73161 15.7474 4.41115C16.2179 4.67251 16.6884 4.98615 17.1065 5.35206C17.4202 5.61342 18.3088 6.50206 18.5179 6.76342C18.7793 7.02479 18.9884 7.07706 19.1452 7.07706C19.4588 7.07706 19.6679 6.8157 19.8247 6.39751L20.8179 4.04524C20.9224 3.73161 21.1838 3.52251 21.4452 3.52251C21.7065 3.52251 21.9156 3.67933 21.9156 4.04524C21.9156 4.46342 21.7065 6.13615 21.7065 8.95888C21.7065 12.4089 21.8633 14.343 21.8633 15.9634C21.8633 16.2771 21.602 16.4862 21.3406 16.4862C21.0793 16.4862 20.8179 16.3293 20.7656 15.9634C20.2429 13.6112 20.0338 12.1475 19.4065 10.5793C18.7793 9.01115 17.4202 7.07706 16.1134 6.13615C14.702 5.14297 13.1861 4.56797 11.4088 4.56797C9.94517 4.56797 8.53381 4.98615 7.33153 5.82251C5.92017 6.86797 5.13608 8.22706 5.13608 9.6907C5.13608 11.5725 6.02472 12.7225 8.32472 13.9771C10.4679 15.1793 13.2384 15.9112 15.5906 16.6952C18.152 17.5316 20.6088 18.4725 22.2815 20.3543C23.3793 21.5566 23.9543 23.5952 23.9543 25.7384C23.9543 30.9134 20.452 34.5725 15.3293 34.5725Z" fill="#96B8BF"/>
<path d="M50.6656 9.16765C50.0384 6.91992 48.8884 4.93356 45.9611 4.88129C45.4906 4.88129 43.7656 4.82901 43.5043 4.82901C43.2429 4.82901 43.1384 4.98583 43.1384 5.24719V31.7495C43.1384 32.4813 43.452 32.6904 44.2884 32.6904L49.4111 32.9517C49.777 33.004 49.9861 33.2131 49.9861 33.4745C49.9861 33.7358 49.8293 33.9972 49.4111 33.9972C48.052 33.9972 44.9679 33.8926 40.9429 33.8926C37.2838 33.8926 33.7293 33.9972 32.3179 33.9972C31.952 33.9972 31.7952 33.6836 31.7952 33.4745C31.7952 33.1608 31.952 32.9517 32.3179 32.9517L37.4406 32.6904C38.3293 32.6381 38.6429 32.429 38.6429 31.7495V5.29947C38.6429 5.0381 38.4861 4.88129 38.277 4.88129C38.0679 4.88129 36.4475 4.93356 35.7679 4.93356C33.3111 4.98583 31.7952 6.44947 31.1679 8.90629C30.4884 11.4676 30.0179 13.5586 29.4429 16.2767C29.3906 16.5381 29.1293 16.6949 28.9202 16.6949C28.7111 16.6949 28.3975 16.5381 28.3975 16.1722C28.3975 14.4472 28.502 12.9313 28.502 10.8404V4.30629C28.502 4.20174 28.5543 4.04492 28.7634 4.04492C30.9588 4.04492 34.4088 4.14947 35.977 4.14947H45.6997C47.7384 4.14947 50.8225 4.04492 52.9134 4.04492C53.0179 4.04492 53.227 4.14947 53.227 4.30629V10.8404C53.227 12.6176 53.3315 14.3426 53.3315 16.1722C53.3315 16.4858 53.0702 16.6949 52.8088 16.6949C52.5475 16.6949 52.2861 16.5381 52.2861 16.2767C51.8156 13.8722 51.3452 11.5199 50.6656 9.16765Z" fill="#96B8BF"/>
<path d="M85.5837 34.0495C84.2246 34.0495 80.2519 33.8927 77.6906 33.8927C75.1292 33.8927 72.8292 34.0495 69.7974 34.0495C69.4837 34.0495 69.2746 33.7359 69.2746 33.5268C69.2746 33.2132 69.536 33.0041 69.8496 33.0041L73.3519 32.8995C74.9201 32.8473 75.3906 32.7427 75.3906 32.0632C75.3906 31.8018 75.3383 31.4882 75.2337 31.07L72.5678 22.7586H63.786L61.3292 29.5541C61.1724 29.9723 61.0678 30.3382 61.0678 30.7041C61.0678 31.645 61.7996 32.3245 63.5246 32.5336L67.1837 32.8995C67.4974 32.9518 67.7065 33.2132 67.7065 33.4223C67.7065 33.7359 67.4974 33.945 67.236 33.945C65.4065 33.945 62.9496 33.7882 60.6496 33.7882C57.5656 33.7882 56.1019 33.945 54.0633 33.945C53.7496 33.945 53.4883 33.7359 53.4883 33.4223C53.4883 33.1086 53.6974 32.8995 54.0633 32.8473L56.311 32.5336C58.2974 32.22 59.3428 32.1154 60.3883 29.2927L69.9019 3.31317C70.0065 3.05181 70.2155 2.94727 70.4246 2.94727C70.6337 2.94727 70.8428 3.05181 70.9474 3.36545L80.0951 31.0177C80.461 32.22 80.8269 32.6904 82.0815 32.7427L85.636 32.8995C86.0019 32.8995 86.2633 33.2132 86.2633 33.4745C86.1587 33.7882 85.9496 34.0495 85.5837 34.0495ZM72.2019 21.7132L68.386 10.0041L64.1519 21.7132H72.2019Z" fill="#96B8BF"/>
<path d="M111.878 34.6249C108.01 34.6249 107.016 32.2727 106.912 29.084C106.86 28.0908 106.912 27.0454 106.86 25.9999C106.703 20.5113 105.396 19.3613 101.423 19.3613H97.7642V31.4363C97.7642 32.3772 97.9733 32.7954 99.2278 32.8477L103.305 33.0045C103.619 33.0045 103.828 33.2658 103.828 33.5272C103.828 33.7886 103.723 34.0499 103.305 34.0499C101.946 34.0499 97.5551 33.9454 95.6733 33.9454C93.8437 33.9454 89.1392 34.0499 87.7801 34.0499C87.4142 34.0499 87.2574 33.7363 87.2574 33.5272C87.2574 33.2136 87.4142 33.0045 87.7801 33.0045L91.8573 32.7954C93.0073 32.6908 93.2687 32.3772 93.2687 31.384V6.81584C93.2687 5.87493 92.8505 5.40447 91.9619 5.3522L87.8323 5.19538C87.3619 5.19538 87.2051 4.88175 87.2051 4.62038C87.2051 4.30675 87.4142 4.09766 87.8323 4.09766C88.9823 4.09766 91.3346 4.2022 95.4119 4.2022C97.7119 4.2022 99.4369 4.09766 101.737 4.09766H101.841C106.546 4.09766 113.655 5.61357 113.655 11.4158C113.655 14.6045 110.885 17.1658 108.166 18.3158C107.435 18.6295 106.389 18.8386 105.396 18.9431C105.239 18.9431 105.239 19.0477 105.239 19.0477C105.239 19.0477 105.291 19.1522 105.344 19.1522C106.128 19.4658 107.748 20.4067 108.428 20.9295C110.414 22.4977 111.407 24.484 111.564 26.8886L111.826 29.5022C111.982 30.6522 112.348 32.4817 113.812 32.4817C115.589 32.4817 115.851 30.4954 115.851 29.1363V26.4181C115.851 26.1045 116.06 25.9477 116.321 25.9477C116.582 25.9477 116.791 26.1045 116.844 26.4181C116.948 27.3067 116.948 28.4045 116.948 29.2408C117.001 32.5863 115.328 34.6249 111.878 34.6249ZM101.841 5.14311C101.528 5.14311 99.5937 5.19538 99.1755 5.24766C98.0255 5.29993 97.7642 5.82266 97.7642 6.60675V18.4204H102.626C106.651 18.4204 108.794 16.8522 108.794 11.3636C108.741 5.56129 104.926 5.14311 101.841 5.14311Z" fill="#96B8BF"/>
<path d="M16.1659 75.4496C13.8659 75.4496 11.4091 74.5609 9.57955 73.4632C5.29318 70.7973 2 65.8314 2 60.1859C2 54.8018 4.97955 49.6268 9.00455 46.6996C10.9909 45.3405 13.3955 44.295 16.3227 44.295C18.8318 44.295 21.1841 45.445 23.0136 47.5882C23.1182 47.6928 23.2227 47.7973 23.3273 47.7973C23.5886 47.7973 23.85 47.5359 24.0591 47.0132L25 44.6087C25.1045 44.2428 25.3136 44.0859 25.5227 44.0859C25.7841 44.0859 25.9932 44.3473 25.9932 44.6087V44.7132C25.9932 45.445 25.9409 46.1246 25.9409 47.0655C25.9409 50.62 26.0977 55.3246 26.3591 57.7291V57.8337C26.3591 58.1473 26.0455 58.3564 25.7318 58.3564C25.4182 58.3564 25.1568 58.095 25.1045 57.7814C24.7909 54.9587 24.1636 52.6064 23.3273 50.62C22.0205 47.5882 19.5114 45.3928 16.2705 45.3928C13.6045 45.3928 11.775 46.02 10.4682 47.4837C8.27273 49.8882 7.175 54.2268 7.175 60.2382C7.175 66.4064 8.48182 70.3791 10.8341 72.47C12.4023 73.8291 14.3364 74.2473 16.5318 74.2473C22.0205 74.2473 25.4182 69.2814 25.4182 62.4337C25.4182 62.0678 25.7841 61.8064 26.15 61.8064C26.5159 61.8064 26.8295 62.0678 26.8295 62.4337C26.8295 69.6996 23.0136 75.4496 16.1659 75.4496Z" fill="#96B8BF"/>
<path d="M60.5452 74.822C59.1861 74.822 55.2134 74.6652 52.652 74.6652C50.0384 74.6652 47.7906 74.822 44.7588 74.822C44.4452 74.822 44.2361 74.5084 44.2361 74.2993C44.2361 73.9856 44.4975 73.7765 44.8111 73.7765L48.3134 73.672C49.8815 73.6197 50.352 73.5152 50.352 72.8356C50.352 72.5743 50.2997 72.2606 50.1952 71.8425L47.477 63.5311H38.6952L36.2384 70.3265C36.0816 70.7447 35.977 71.1106 35.977 71.4765C35.977 72.4175 36.7088 73.097 38.4338 73.3061L42.0929 73.672C42.4065 73.7243 42.6156 73.9856 42.6156 74.1947C42.6156 74.5084 42.4066 74.7175 42.1452 74.7175C40.3156 74.7175 37.8588 74.5606 35.5588 74.5606C32.4747 74.5606 31.0111 74.7175 28.9725 74.7175C28.6588 74.7175 28.3975 74.5084 28.3975 74.1947C28.3975 73.8811 28.6066 73.672 28.9725 73.6197L31.2202 73.3061C33.2066 72.9925 34.252 72.8879 35.2975 70.0652L44.8111 44.0856C44.9156 43.8243 45.1247 43.7197 45.3338 43.7197C45.5429 43.7197 45.752 43.8243 45.8566 44.1379L55.0043 71.7902C55.3702 72.9925 55.7361 73.4629 56.9906 73.5152L60.5452 73.672C60.9111 73.672 61.1725 73.9856 61.1725 74.247C61.1202 74.5606 60.8588 74.822 60.5452 74.822ZM47.1634 62.4856L43.3475 50.7765H43.2952L39.1134 62.4856H47.1634Z" fill="#96B8BF"/>
<path d="M86.786 75.3974C82.9178 75.3974 81.9246 73.0451 81.8201 69.8565C81.7678 68.8633 81.8201 67.8178 81.7678 66.7724C81.611 61.2838 80.3042 60.1338 76.3315 60.1338H72.6724V72.2087C72.6724 73.1497 72.8815 73.5678 74.136 73.6201L78.2133 73.7769C78.5269 73.7769 78.736 74.0383 78.736 74.2997C78.736 74.561 78.6315 74.8224 78.2133 74.8224C76.8542 74.8224 72.4633 74.7178 70.5815 74.7178C68.7519 74.7178 64.0474 74.8224 62.6883 74.8224C62.3224 74.8224 62.1656 74.5087 62.1656 74.2997C62.1656 73.986 62.3224 73.7769 62.6883 73.7769L66.7656 73.5678C67.9156 73.4633 68.1769 73.1497 68.1769 72.1565V47.5883C68.1769 46.6474 67.7587 46.1769 66.8701 46.1247L62.7406 45.9678C62.2701 45.9678 62.1133 45.6542 62.1133 45.3928C62.1133 45.0792 62.3224 44.8701 62.7406 44.8701C63.8906 44.8701 66.2428 44.9747 70.3201 44.9747C72.6201 44.9747 74.3451 44.8701 76.6451 44.8701H76.7496C81.4542 44.8701 88.5633 46.386 88.5633 52.1883C88.5633 55.3769 85.7928 57.9383 83.0746 59.0883C82.3428 59.4019 81.2974 59.611 80.3042 59.7156C80.1474 59.7156 80.1474 59.8201 80.1474 59.8201C80.1474 59.8201 80.1996 59.9247 80.2519 59.9247C81.036 60.2383 82.6565 61.1792 83.336 61.7019C85.3224 63.2701 86.3156 65.2565 86.4724 67.661L86.7337 70.2747C86.8906 71.4247 87.2565 73.2542 88.7201 73.2542C90.4974 73.2542 90.7587 71.2678 90.7587 69.9088V67.1906C90.7587 66.8769 90.9678 66.7201 91.2292 66.7201C91.4906 66.7201 91.6996 66.8769 91.7519 67.1906C91.8565 68.0792 91.8565 69.1769 91.8565 70.0133C91.961 73.3588 90.2883 75.3974 86.786 75.3974ZM76.7496 45.9156C76.436 45.9156 74.5019 45.9678 74.0837 46.0201C72.9337 46.0724 72.6724 46.5951 72.6724 47.3792V59.1928H77.5337C81.5587 59.1928 83.7019 57.6247 83.7019 52.136C83.6496 46.3338 79.886 45.9156 76.7496 45.9156Z" fill="#96B8BF"/>
<path d="M108.271 75.3454C104.821 75.3454 102.416 74.1954 100.273 71.7386L99.7502 71.1113C99.3843 70.5886 99.0184 70.5363 98.8616 71.0591C98.5479 71.8954 98.0252 73.8818 97.7116 74.9273C97.607 75.1886 97.3979 75.3977 97.1889 75.3977C96.9275 75.3977 96.6139 75.2932 96.6139 74.875V74.7704C96.6139 74.5613 96.7707 70.9545 96.7707 69.5432V68.55C96.7707 65.1 96.457 62.9045 96.457 61.5977C96.457 61.2318 96.7184 61.0227 96.9798 61.0227C97.2411 61.0227 97.5025 61.1795 97.5548 61.5977C97.8161 62.6432 98.0775 64.1068 98.4434 65.5182C98.9661 67.5045 99.6457 69.1773 101.005 70.7977C102.939 73.0977 105.239 74.1432 108.323 74.1432C111.773 74.1432 115.066 72.3136 115.066 68.4977C115.066 66.1977 113.498 64.8909 111.721 64.0545C109.734 63.1659 107.016 62.3818 104.507 61.4409C101.946 60.5 99.5934 59.2977 98.2343 57.7818C97.1889 56.5795 96.5616 54.5409 96.5616 52.45C96.5616 49.575 97.6593 47.2227 99.5411 45.8113C100.9 44.7659 102.73 44.2432 104.455 44.2432C105.971 44.2432 107.487 44.5568 108.741 45.2363C109.212 45.4977 109.682 45.8113 110.1 46.1773C110.414 46.4386 111.302 47.3273 111.512 47.5886C111.773 47.85 111.982 47.9023 112.139 47.9023C112.452 47.9023 112.662 47.6409 112.818 47.2227L113.759 44.8182C113.864 44.5045 114.125 44.2954 114.387 44.2954C114.648 44.2954 114.857 44.4523 114.857 44.8182C114.857 45.2363 114.648 46.9091 114.648 49.7318C114.648 53.1818 114.805 55.1159 114.805 56.7363C114.805 57.05 114.543 57.2591 114.282 57.2591C114.021 57.2591 113.759 57.1023 113.707 56.7363C113.184 54.3841 112.975 52.9204 112.348 51.3523C111.721 49.7841 110.362 47.85 109.055 46.9091C107.643 45.9159 106.127 45.3409 104.35 45.3409C102.887 45.3409 101.475 45.7591 100.273 46.5954C98.9139 47.5886 98.0775 49 98.0775 50.4636C98.0775 52.3454 98.9661 53.4954 101.266 54.75C103.409 55.9523 106.18 56.6841 108.532 57.4682C111.093 58.3045 113.55 59.2454 115.223 61.1273C116.321 62.3295 116.896 64.3682 116.896 66.5113C116.896 71.6863 113.341 75.3454 108.271 75.3454Z" fill="#96B8BF"/>
</svg>
