<svg fill="none" xmlns="http://www.w3.org/2000/svg">
<g filter="url(#filter0_d)">
<path d="M5 86.3498C6.76333 85.6598 10.405 82.6698 15.925 77.3798C21.5217 72.0898 26.62 65.9949 31.22 59.0948C35.82 52.1182 38.12 45.4098 38.12 38.9698C38.12 33.5265 37.0083 29.5398 34.785 27.0098C32.6383 24.4032 28.92 23.0998 23.63 23.0998C21.1 23.0998 18.6083 23.5598 16.155 24.4798C13.7783 25.3998 11.7083 26.4348 9.945 27.5848C8.18167 28.7348 7.3 29.3482 7.3 29.4248L6.38 24.2498C6.38 24.0965 7.3 23.4448 9.14 22.2948C11.0567 21.0682 13.395 19.9565 16.155 18.9598C18.915 17.9632 21.8283 17.4648 24.895 17.4648C32.5617 17.4648 38.1967 19.3432 41.8 23.0998C45.48 26.7798 47.32 31.8398 47.32 38.2798C47.32 46.5598 43.87 54.8782 36.97 63.2348C30.07 71.5148 22.4417 78.9132 14.085 85.4298H49.39V93.2498H5V86.3498Z" fill="#091B24"/>
<path d="M90.8601 74.3898H58.6601L58.0851 70.0198C61.2284 63.8098 64.5251 55.8748 67.9751 46.2148C71.5017 36.4782 74.4534 26.8948 76.8301 17.4648L84.7651 18.4998C82.4651 27.3165 79.4751 36.1332 75.7951 44.9498C72.1917 53.7665 68.4351 61.8548 64.5251 69.2148H90.8601L92.8151 29.4248H99.3701V69.2148H107.535V73.8148L99.3701 74.3898V93.2498H90.8601V74.3898Z" fill="#091B24"/>
<path d="M14.085 85.9298H48.89V92.7498H5.5V86.6774C6.4456 86.2293 7.74303 85.313 9.37103 83.9763C11.2056 82.47 13.5059 80.3907 16.2695 77.7422C21.8951 72.4247 27.017 66.3007 31.636 59.3722L31.6374 59.3701C36.2755 52.3358 38.62 45.533 38.62 38.9698C38.62 33.4796 37.5025 29.349 35.1659 26.6858C32.8803 23.9156 28.9806 22.5998 23.63 22.5998C21.0379 22.5998 18.4869 23.0714 15.9794 24.0117L15.9794 24.0117L15.9745 24.0136C13.5719 24.9436 11.4697 25.9936 9.67187 27.166C8.78917 27.7417 8.12287 28.1858 7.67572 28.4969C7.66588 28.5037 7.65614 28.5105 7.64649 28.5173L6.91292 24.3909C7.00995 24.3091 7.15645 24.1976 7.35901 24.0541C7.80698 23.7368 8.48718 23.2925 9.405 22.7188L9.40501 22.7189L9.40953 22.716C11.2874 21.5141 13.5903 20.4176 16.3248 19.4301C19.0279 18.454 21.8836 17.9648 24.895 17.9648C32.49 17.9648 37.967 19.8261 41.4392 23.446L41.4391 23.446L41.4464 23.4534C45.0115 27.0184 46.82 31.9391 46.82 38.2798C46.82 46.4116 43.4338 54.6208 36.5852 62.9156C29.7078 71.1683 22.1053 78.5414 13.7775 85.0356L12.6307 85.9298H14.085ZM91.3601 74.3898V73.8898H90.8601H59.0986L58.6009 70.1076C61.7358 63.8934 65.0171 55.9837 68.4456 46.3839C71.9237 36.7811 74.8439 27.3259 77.2059 18.0181L84.1373 18.9222C81.8631 27.5324 78.9287 36.144 75.3336 44.7572L75.3322 44.7607C71.7344 53.564 67.9847 61.6369 64.0835 68.9803L63.6933 69.7148H64.5251H90.8601H91.3361L91.3595 69.2394L93.2911 29.9248H98.8701V69.2148V69.7148H99.3701H107.035V73.3488L99.3349 73.8911L98.8701 73.9238V74.3898V92.7498H91.3601V74.3898Z" stroke="#194FDB"/>
</g>
<g filter="url(#filter1_d)">
<path d="M112 118L155.125 3H161.45L118.44 118H112Z" fill="#091B24"/>
<path d="M118.093 117.5H112.721L155.471 3.5H160.729L118.093 117.5Z" stroke="#194FDB"/>
</g>
<g filter="url(#filter2_d)">
<path d="M173.82 92.75C177.577 75.4233 186.432 53.2667 200.385 26.28H166V18H207.515V24.9C202.455 34.33 197.587 45.37 192.91 58.02C188.31 70.67 184.975 82.2467 182.905 92.75H173.82Z" fill="#091B24"/>
<path d="M174.442 92.25C178.258 75.0758 187.046 53.1662 200.829 26.5096L201.206 25.78H200.385H166.5V18.5H207.015V24.7744C201.963 34.2048 197.105 45.2297 192.441 57.8466L192.44 57.8491C187.892 70.356 184.576 81.8234 182.494 92.25H174.442Z" stroke="#194FDB"/>
</g>
<defs>
<filter id="filter0_d" x="0.208334" y="14.5898" width="112.118" height="85.3683" filterUnits="userSpaceOnUse" color-interpolation-filters="sRGB">
<feFlood flood-opacity="0" result="BackgroundImageFix"/>
<feColorMatrix in="SourceAlpha" type="matrix" values="0 0 0 0 0 0 0 0 0 0 0 0 0 0 0 0 0 0 127 0"/>
<feOffset dy="1.91667"/>
<feGaussianBlur stdDeviation="2.39583"/>
<feColorMatrix type="matrix" values="0 0 0 0 0.0980392 0 0 0 0 0.309804 0 0 0 0 0.858824 0 0 0 0.7 0"/>
<feBlend mode="normal" in2="BackgroundImageFix" result="effect1_dropShadow"/>
<feBlend mode="normal" in="SourceGraphic" in2="effect1_dropShadow" result="shape"/>
</filter>
<filter id="filter1_d" x="107.208" y="0.125" width="59.0333" height="124.583" filterUnits="userSpaceOnUse" color-interpolation-filters="sRGB">
<feFlood flood-opacity="0" result="BackgroundImageFix"/>
<feColorMatrix in="SourceAlpha" type="matrix" values="0 0 0 0 0 0 0 0 0 0 0 0 0 0 0 0 0 0 127 0"/>
<feOffset dy="1.91667"/>
<feGaussianBlur stdDeviation="2.39583"/>
<feColorMatrix type="matrix" values="0 0 0 0 0.0980392 0 0 0 0 0.309804 0 0 0 0 0.858824 0 0 0 0.7 0"/>
<feBlend mode="normal" in2="BackgroundImageFix" result="effect1_dropShadow"/>
<feBlend mode="normal" in="SourceGraphic" in2="effect1_dropShadow" result="shape"/>
</filter>
<filter id="filter2_d" x="161.208" y="15.125" width="51.0983" height="84.3333" filterUnits="userSpaceOnUse" color-interpolation-filters="sRGB">
<feFlood flood-opacity="0" result="BackgroundImageFix"/>
<feColorMatrix in="SourceAlpha" type="matrix" values="0 0 0 0 0 0 0 0 0 0 0 0 0 0 0 0 0 0 127 0"/>
<feOffset dy="1.91667"/>
<feGaussianBlur stdDeviation="2.39583"/>
<feColorMatrix type="matrix" values="0 0 0 0 0.0980392 0 0 0 0 0.309804 0 0 0 0 0.858824 0 0 0 0.7 0"/>
<feBlend mode="normal" in2="BackgroundImageFix" result="effect1_dropShadow"/>
<feBlend mode="normal" in="SourceGraphic" in2="effect1_dropShadow" result="shape"/>
</filter>
</defs>
</svg>
