<svg viewBox="0 0 16 10" fill="none" xmlns="http://www.w3.org/2000/svg">
<path fill-rule="evenodd" clip-rule="evenodd" d="M15.6316 0.63777C15.7442 0.262611 15.6316 0 15.1064 0H13.3556C12.9055 0 12.7054 0.237601 12.5928 0.500212C12.5928 0.500212 11.705 2.67613 10.4419 4.07672C10.0292 4.4894 9.85417 4.61445 9.62907 4.61445C9.51653 4.61445 9.35396 4.4894 9.35396 4.11424V0.63777C9.35396 0.187579 9.2289 0 8.85375 0H6.10258C5.82747 0 5.65239 0.21259 5.65239 0.400169C5.65239 0.825349 6.27766 0.925392 6.35269 2.10089V4.67698C6.35269 5.23972 6.25265 5.33976 6.02755 5.33976C5.4398 5.33976 3.98919 3.16384 3.13883 0.662781C2.96375 0.200085 2.80118 0 2.35099 0H0.600254C0.100042 0 0 0.237601 0 0.500212C0 0.962907 0.587748 3.26388 2.76367 6.30267C4.21428 8.37854 6.25265 9.50402 8.10343 9.50402C9.2164 9.50402 9.35396 9.25392 9.35396 8.82874V7.25307C9.35396 6.75286 9.454 6.65281 9.81665 6.65281C10.0793 6.65281 10.5169 6.77787 11.5549 7.77829C12.7429 8.96629 12.943 9.50402 13.6058 9.50402H15.3565C15.8567 9.50402 16.1068 9.25392 15.9568 8.76621C15.7942 8.2785 15.2314 7.5657 14.4811 6.71534C14.0685 6.22763 13.4557 5.71492 13.2806 5.45231C13.018 5.11466 13.093 4.9646 13.2806 4.67698C13.2806 4.66447 15.419 1.6632 15.6316 0.63777Z" />
</svg>
