<svg viewBox="0 0 16 16" fill="none" xmlns="http://www.w3.org/2000/svg">
<path fill-rule="evenodd" clip-rule="evenodd" d="M13.68 2.29933C12.16 0.83 10.16 0 8.03 0C1.91667 0 -1.922 6.62333 1.13067 11.892L0 16L4.22333 14.8987C5.76657 15.7323 7.07579 15.8049 7.73132 15.8412H7.73133C7.85739 15.8482 7.95927 15.8539 8.034 15.8633C15.1227 15.8633 18.6513 7.28733 13.67 2.32533L13.68 2.29933ZM8.0443 14.5005L8.0403 14.4999H8.02963C6.16037 14.4999 4.88588 13.7198 4.51816 13.4947L4.51815 13.4947C4.46857 13.4643 4.43547 13.4441 4.41963 13.4372L1.91963 14.0872L2.58963 11.6572L2.4303 11.4072C1.7703 10.3565 1.41963 9.14653 1.41963 7.90053C1.41963 2.03853 8.58296 -0.892805 12.7283 3.25053C16.8636 7.35053 13.9603 14.5005 8.0443 14.5005ZM11.6654 9.58802L11.6714 9.53802C11.6928 9.54766 11.7135 9.55684 11.7333 9.56566C11.8985 9.63919 12.0074 9.68766 12.0514 9.76802C12.1014 9.85802 12.1014 10.248 11.9314 10.718C11.7654 11.188 10.9701 11.608 10.5874 11.6687C10.2441 11.718 9.81008 11.7394 9.33408 11.588C7.57141 10.9827 6.60741 10.5467 4.79808 8.17869C3.87741 6.88135 3.60608 5.66135 4.68208 4.47869C4.92941 4.22135 5.21008 4.21602 5.59408 4.24935C5.60619 4.24935 5.61871 4.24888 5.63158 4.24839C5.74972 4.24389 5.89779 4.23826 6.04208 4.58935C6.11516 4.76065 6.23271 5.04525 6.3459 5.31928C6.49086 5.67023 6.62867 6.00387 6.65675 6.06002C6.70608 6.15935 6.74008 6.26935 6.67341 6.40935C6.5166 6.70612 6.35327 6.88631 6.23142 7.02075C6.0642 7.20524 5.97509 7.30355 6.08808 7.49869C6.20541 7.69869 6.60275 8.34869 7.19475 8.87869C7.83083 9.44781 8.38425 9.68771 8.66507 9.80944C8.71978 9.83315 8.76414 9.85238 8.79675 9.86869C8.99475 9.95869 9.11075 9.94869 9.22741 9.81869C9.45441 9.55871 9.60609 9.36328 9.71692 9.22048C9.9892 8.86967 10.015 8.83647 10.3054 8.94402C10.4874 9.01002 11.4647 9.48802 11.6654 9.58802Z"/>
</svg>
