<svg width="60" height="60" viewBox="0 0 60 60" fill="none" xmlns="http://www.w3.org/2000/svg">
<path d="M47.7782 30.0004C47.7782 39.8253 39.8253 47.7782 30.0004 47.7782V30.0004H47.7782ZM30.0004 12.2227V30.0004H12.2227C12.2227 20.1756 20.1756 12.2227 30.0004 12.2227Z" fill="#0166B1"/>
<path d="M30.0004 12.2227C39.8253 12.2227 47.7782 20.1756 47.7782 30.0004H30.0004V12.2227ZM12.2227 30.0004H30.0004V47.7782C20.1756 47.7782 12.2227 39.8253 12.2227 30.0004Z" fill="white"/>
<path d="M30 12.2222V13.1969C39.2643 13.1969 46.803 20.7339 46.803 30H47.7778C47.7778 20.1822 39.8178 12.2222 30 12.2222ZM30 46.803C20.7357 46.803 13.197 39.2661 13.197 30H12.2222C12.2222 39.8178 20.1822 47.7778 30 47.7778V46.803ZM30 0C13.4319 0 0 13.4319 0 30C0 46.5681 13.4319 60 30 60C46.5681 60 60 46.5681 60 30C60 13.4319 46.5681 0 30 0ZM58.0492 30C58.0492 45.4904 45.4921 58.0492 30 58.0492C14.5079 58.0492 1.95085 45.4904 1.95085 30C1.95085 14.5096 14.5096 1.95085 30 1.95085C45.4904 1.95085 58.0492 14.5096 58.0492 30Z" fill="#6F6F6F"/>
<path d="M17.1792 15.5278C18.1378 14.525 18.6806 13.3664 17.7219 12.2603C17.2003 11.6601 16.3245 11.5288 15.5984 11.8246L15.5262 11.8526L15.5491 11.7896C15.6566 11.5043 15.7253 10.5943 14.9446 9.96597C14.564 9.6597 14.0864 9.54594 13.6036 9.59494C12.703 9.68595 12.0105 10.2967 10.1249 12.3846C9.55568 13.0146 8.72742 14.0087 8.23047 14.6527L13.4097 19.532C15.1261 17.6454 15.8258 16.9436 17.1792 15.5278ZM10.4209 14.3342C11.4642 13.0671 12.5726 11.9173 13.0749 11.4623C13.2335 11.3188 13.4062 11.1753 13.6159 11.1193C13.956 11.0265 14.3067 11.2663 14.386 11.6128C14.4653 11.9611 14.245 12.2919 14.0001 12.5649C13.4485 13.1827 11.4254 15.2845 11.4254 15.2845L10.4209 14.3342ZM12.4493 16.2453C12.4493 16.2453 14.4195 14.1767 15.0627 13.5152C15.3182 13.2527 15.4821 13.0934 15.6583 13.0076C15.8857 12.8974 16.1341 12.8746 16.3562 13.0216C16.5747 13.1669 16.6752 13.4172 16.6205 13.6657C16.5553 13.9614 16.3121 14.2432 16.1112 14.4585C15.8398 14.7472 13.5031 17.2306 13.4996 17.2341L12.4493 16.2453ZM30.5916 9.7087L32.2499 6.01949L32.3556 5.69222L32.3257 6.03349L32.5001 10.9635C33.0817 11.0178 33.6826 11.0983 34.2747 11.1963L34.0051 3.89486C33.1768 3.80386 32.3521 3.7391 31.5274 3.7041L29.8938 7.73109L29.8356 8.03035L29.7775 7.73109L28.1456 3.7041C27.3209 3.7391 26.4961 3.80386 25.6679 3.89486L25.3983 11.1963C25.9904 11.0983 26.5913 11.0195 27.1729 10.9635L27.3473 6.03349L27.3174 5.69222L27.4231 6.01949L29.0814 9.7087H30.5916H30.5916ZM44.3636 17.3409C44.7706 17.7749 45.3575 18.475 45.687 18.9002L51.7562 15.0745C51.4531 14.6807 50.9702 14.0822 50.609 13.6604L46.7655 16.1841L46.5029 16.4081L46.6985 16.1246L48.3956 12.7609L47.1955 11.5691L43.8067 13.2544L43.5212 13.4487L43.7485 13.1879L46.2915 9.37268C45.8439 8.99466 45.4139 8.64814 44.8658 8.22812L41.0135 14.2502C41.5017 14.623 42.1449 15.1708 42.5555 15.5435L46.1822 13.6744L46.4148 13.5047L46.2439 13.7357L44.3636 17.3409Z" fill="#6F6F6F"/>
</svg>
