<svg width="37" height="58" viewBox="0 0 37 58" fill="none" xmlns="http://www.w3.org/2000/svg">
<g clip-path="url(#clip0)">
<path d="M34.3684 0.00488281C35.3712 0.00488281 36.182 0.807075 36.182 1.79919V56.151C36.182 57.1423 35.3712 57.9453 34.3684 57.9453H1.89002C0.888199 57.9453 0.0771484 57.1424 0.0771484 56.151V1.79919C0.0771484 0.807075 0.888199 0.00488281 1.89002 0.00488281H34.3684Z" fill="white"/>
<path d="M0.782227 8.06152H35.5009V56.0419C35.5009 56.4409 35.4328 56.6876 35.1637 56.9552C34.8716 57.2455 34.6153 57.2716 34.1528 57.2716L1.81884 57.2747C1.56407 57.2747 1.36866 57.1935 1.15775 57.0152C0.896539 56.7913 0.782227 56.5123 0.782227 56.217V8.06152Z" fill="#FFF200"/>
<path d="M35.5009 5.64648H0.782227V8.11148H35.5009V5.64648Z" fill="#ED1C24"/>
<path d="M35.5009 3.17676H0.782227V5.64186H35.5009V3.17676Z" fill="white"/>
<path d="M1.76369 0.669922H34.4968C35.021 0.669922 35.5044 1.17526 35.5044 1.66847V3.24206H0.782227L0.78539 1.85818V1.74303C0.78539 1.18507 1.21533 0.725075 1.76369 0.669922Z" fill="#009A4E"/>
<path d="M34.3684 0.00488281C35.3712 0.00488281 36.182 0.807075 36.182 1.79919V56.151C36.182 57.1423 35.3712 57.9453 34.3684 57.9453H1.89002C0.888199 57.9453 0.0771484 57.1424 0.0771484 56.151V1.79919C0.0771484 0.807075 0.888199 0.00488281 1.89002 0.00488281H34.3684ZM34.3684 0.72113H1.89002C1.28808 0.72113 0.801516 1.20453 0.801516 1.79919V56.151C0.801516 56.7464 1.28819 57.2265 1.89002 57.2265H34.3684C34.9705 57.2265 35.457 56.7464 35.457 56.151V1.79919C35.457 1.20464 34.9705 0.72113 34.3684 0.72113Z" fill="black"/>
<path d="M17.4903 11.1064C17.4903 11.1064 17.4684 11.3157 17.4206 11.4382C17.3736 11.5517 17.2511 11.628 17.2592 11.7042C17.2673 11.7788 17.3468 11.8689 17.4701 11.9312C17.5909 11.9945 17.6395 12.0432 17.7637 12.0748C17.8788 12.1033 18.0249 12.1876 18.0662 12.0911C18.1077 11.9929 18.0452 11.8736 17.9754 11.7593C17.8537 11.5598 17.7921 11.5111 17.6129 11.2369C17.5747 11.1778 17.5447 11.1145 17.4903 11.1064Z" fill="black"/>
<path d="M16.5815 32.6624C16.5937 32.6267 16.8808 32.8085 17.03 32.8961C17.344 33.0842 17.4851 33.1961 17.7625 33.4038C17.9824 33.5709 18.0886 33.6569 18.3093 33.8467C18.5801 34.0803 18.7262 34.2798 18.7992 34.2344C18.9047 34.1079 18.6265 33.7379 18.3806 33.537C18.1414 33.3389 17.894 33.1784 17.7034 33.0534C17.4576 32.8895 17.4356 32.8522 17.0682 32.6056C16.6732 32.3412 16.3326 32.0087 16.3326 32.0087L15.9488 31.707L15.3478 31.2L14.6795 30.5843L14.175 30.0222C14.175 30.0222 13.7824 29.542 13.7199 29.4494C13.6567 29.3578 13.4717 29.0608 13.3193 28.8095C13.183 28.584 12.9186 28.2336 12.8942 28.2036C12.7514 28.0308 12.4254 28.1006 12.0465 27.8775C11.5866 27.6058 11.4754 27.3575 11.4754 27.3575C11.4754 27.3575 11.4583 27.3211 11.4405 27.3016C11.4234 27.2813 11.3886 27.2562 11.3886 27.2562L11.1477 27.0883L11.0097 26.9974C11.0097 26.9974 10.9051 26.9106 10.7737 26.8546C10.6415 26.7962 10.3471 26.625 10.3471 26.625L9.82064 26.2893C9.82064 26.2893 9.61458 26.1238 9.54646 26.0687C9.47675 26.0159 9.34694 25.9405 9.34694 25.9405C9.34694 25.9405 9.26415 25.8991 9.23906 25.8975C9.21396 25.8958 9.1045 25.8861 9.1045 25.8861C9.1045 25.8861 9.00305 25.8593 8.90002 25.9803C8.79699 26.102 8.82219 26.037 8.99008 26.7216C9.05651 26.9909 9.05008 27.9408 9.12148 28.2303C9.21227 28.6018 9.47348 29.082 9.50027 29.1388C9.52631 29.1948 9.54488 29.4024 9.54488 29.4024C9.54488 29.4024 9.53359 29.5704 9.55141 29.6767C9.63093 30.1674 10.3488 29.8445 10.507 30.5178C10.6628 31.1822 10.4137 31.8448 10.4137 31.8448C10.4137 31.8448 10.2595 32.1743 10.0414 32.226C9.82401 32.2765 9.48656 31.7946 9.24243 31.4045C9.00157 31.0207 8.80448 30.5178 8.74121 30.358C8.67793 30.1982 8.64461 30.1632 8.57163 30.0474C8.46375 29.8745 8.37697 29.9063 8.25611 29.6337C8.13442 29.3612 8.2423 29.2516 8.18799 29.014C8.15635 28.8826 8.12799 28.868 8.08665 28.6797C8.04689 28.4924 7.99332 27.8962 7.99332 27.8962L7.91708 27.3414C7.91708 27.3414 7.89029 27.0883 7.85549 26.9293C7.73464 26.3745 7.69246 25.8375 7.69246 25.8375L7.66979 25.6169L7.66167 25.389C7.66167 25.389 7.65439 25.2794 7.68118 25.1667C7.70796 25.0541 7.76238 24.9608 7.76238 24.9608C7.76238 24.9608 7.87437 24.7734 7.89377 24.7263C7.91244 24.6817 8.14117 24.4157 8.14117 24.4157C8.14117 24.4157 8.26118 24.3159 8.45669 24.1966C8.65305 24.0774 8.82905 24.0855 8.82905 24.0855C8.82905 24.0855 8.88093 24.0806 9.22819 24.1237C9.57535 24.1666 10.2892 24.3564 10.4693 24.4027C10.6469 24.4507 10.8595 24.5252 10.9973 24.6022C11.3939 24.818 11.514 24.7264 11.1985 24.479C10.9859 24.3127 10.926 24.2381 10.7548 24.0824C10.6103 23.9493 10.4968 23.8609 10.3889 23.7384C10.2811 23.6135 9.97365 23.1601 9.97365 23.1601L9.78141 22.8762C9.78141 22.8762 9.67838 22.7595 9.6613 22.7513C9.64516 22.7416 9.59317 22.7018 9.59317 22.7018C9.59317 22.7018 9.46589 22.7082 9.33439 22.6832C9.20141 22.6564 9.13972 22.843 9.13972 22.843C9.13972 22.843 8.85415 23.3759 8.56383 23.7021C8.0934 24.2316 7.75594 24.5919 7.58321 24.8741C7.34066 25.2651 7.39423 25.6935 7.26927 25.8913C7.1963 26.0073 7.15654 26.0244 7.11678 26.1257C6.99509 26.4332 7.43715 26.6018 7.33581 26.9425C7.17436 27.4828 5.90901 28.0173 5.74102 27.928C5.5666 27.8364 5.70939 27.1056 5.76781 26.8695C5.82781 26.6319 6.0054 26.2815 6.02174 26.2636C6.03714 26.2466 6.08017 26.1638 6.09303 26.0941C6.10685 26.0244 6.1117 25.8662 6.11982 25.7786C6.12794 25.6901 6.16442 25.5507 6.16442 25.5507C6.16442 25.5507 6.16927 25.5206 6.28116 25.2782C6.39389 25.034 6.80601 24.4662 7.10128 23.9244C7.29595 23.5707 7.37705 23.3566 7.57171 23.002C7.75099 22.6768 8.05839 22.1803 8.05839 22.1803C8.05839 22.1803 8.1881 21.9273 8.24894 21.8332C8.31063 21.7366 8.44034 21.5542 8.56204 21.374C8.68458 21.1948 8.71453 21.0601 8.87429 20.9125C9.00653 20.7892 9.09659 20.7235 9.26932 20.6683C9.52642 20.5831 9.70253 20.6287 9.96532 20.7017C10.2378 20.7762 10.4252 20.9012 10.6037 21.0488C10.7813 21.1981 10.9136 21.3628 10.9136 21.3628L11.0004 21.4909L11.0538 21.5225L11.2194 21.6288L11.5982 21.8794C11.5982 21.8794 12.497 22.491 12.5473 22.5242C12.5951 22.5559 12.7565 22.6881 12.7881 22.6987C12.8215 22.7084 13.0607 22.4487 13.5304 22.1252C14.0738 21.748 14.2661 21.7763 14.4463 21.6783C14.6239 21.5801 14.6969 21.499 14.8365 21.3595C15.0474 21.1486 15.049 21.0358 15.2882 20.7414C15.5292 20.4478 15.7547 20.2831 15.7547 20.2831C15.7547 20.2831 15.7879 20.2499 16.2171 19.7648C16.6453 19.2814 16.8352 18.9155 16.8352 18.9155L17.0704 18.4442C17.0704 18.4442 17.411 17.7118 17.5206 17.4221C17.6309 17.1318 17.6309 17.0352 17.6309 17.0352C17.6309 17.0352 17.6471 16.959 17.5644 16.8113C17.4792 16.6644 17.3915 16.731 17.2285 16.7643C16.9163 16.8308 16.7264 16.7496 16.4109 16.6946C16.1222 16.6466 15.9713 16.5599 15.6817 16.5121C15.3881 16.4626 15.217 16.414 14.9224 16.4424C14.8778 16.4472 14.7879 16.4659 14.7447 16.4804C14.5784 16.5356 14.5322 16.5485 14.409 16.6199C14.2662 16.6865 14.1721 16.7076 14.0139 16.7116C13.9044 16.7148 13.8379 16.7181 13.7366 16.6784C13.6668 16.6516 13.627 16.6313 13.5719 16.5819C13.5387 16.5518 13.5208 16.5323 13.4956 16.4934C13.4925 16.4626 13.4827 16.4642 13.5127 16.414C13.5419 16.3628 13.5784 16.3539 13.5784 16.3539L13.7131 16.3207C13.7131 16.3207 13.9029 16.2712 13.9207 16.2662C13.9378 16.2614 14.1186 16.203 14.1981 16.1779C14.2784 16.1528 14.366 16.1065 14.366 16.1065C14.366 16.1065 14.4147 16.0287 14.396 15.984C14.3725 15.9336 14.2646 15.9289 14.2646 15.9289C14.2646 15.9289 14.1137 15.984 14.0967 15.9889C14.0805 15.9922 13.8395 16.0683 13.8395 16.0683C13.8395 16.0683 13.6505 16.1097 13.5037 16.1445C13.3561 16.1778 13.1452 16.1948 13.1452 16.1948L13.0819 16.1778C13.0819 16.1778 13.0105 16.1299 12.9992 16.0797C12.9887 16.0351 12.9822 16.0018 12.974 15.9507C12.9424 15.7641 12.9043 15.6513 12.9489 15.4673C12.966 15.3902 12.9839 15.3472 13.0171 15.2759C13.0454 15.2167 13.0641 15.1826 13.1006 15.1266L13.2167 14.9368L13.4357 14.6131C13.5111 14.5369 13.5607 14.4988 13.6555 14.4453C13.795 14.3674 13.8761 14.3455 14.0505 14.326C14.2217 14.3073 14.2452 14.309 14.4877 14.2546C14.7319 14.1994 14.9047 14.1029 14.9047 14.1029C14.9047 14.1029 15.488 13.8888 15.8431 13.7143C16.2154 13.5319 16.3777 13.3371 16.763 13.1863C16.9261 13.1231 17.021 13.093 17.1889 13.0501C17.2099 13.0363 17.2205 13.0233 17.227 12.9981C17.2433 12.9373 17.1492 12.9089 17.0842 12.9153C17.0258 12.9202 16.8928 12.9819 16.8628 12.9153C16.84 12.8643 16.9844 12.8342 16.9844 12.8342C16.9844 12.8342 17.0525 12.8026 17.0542 12.7645C17.0559 12.7061 16.9561 12.7442 16.9114 12.7393C16.6851 12.7141 16.6673 12.6728 16.5107 12.6347C16.3266 12.5885 16.2269 12.5317 16.0354 12.5236C15.8667 12.517 15.7085 12.5528 15.6023 12.5779C15.4977 12.6046 15.4944 12.5016 15.5357 12.4814C15.8319 12.3434 15.8383 12.332 16.0476 12.3223C16.1619 12.3175 16.3218 12.3419 16.3396 12.3507C16.3567 12.3604 16.5854 12.3491 16.6439 12.2891C16.7039 12.2307 16.4565 12.234 16.3396 12.1877C16.2319 12.1448 16.0671 12.1326 16.0704 12.0611C16.0761 11.9897 16.1556 12.0295 16.2123 12.0149C16.2836 11.9979 16.3251 11.9996 16.398 11.9898C16.5296 11.972 16.5408 11.9598 16.7355 11.9437C16.9277 11.925 17.2052 12.0069 17.2052 12.0069C17.2052 12.0069 17.4964 12.136 17.6391 12.2041C17.7819 12.2706 17.9547 12.3055 17.9547 12.3055C17.9547 12.3055 18.1573 12.3338 18.3116 12.2374C18.4681 12.1416 18.3798 12.0783 18.3253 11.99C18.2718 11.9072 18.2037 11.7872 18.3034 11.56C18.3919 11.3621 18.4381 11.1309 18.4633 11.1098C18.495 11.0847 18.6174 11.2623 18.6969 11.3354C18.9816 11.6015 19.3581 11.7329 19.7133 12.2892C19.741 12.3338 19.8724 12.2624 20.2844 12.3257C20.6964 12.389 21.0566 12.8302 21.1475 12.9358C21.2417 13.042 21.3633 13.0363 21.3633 13.0363L21.5612 13.0631L22.2798 13.0752C22.2798 13.0752 22.6059 13.0168 22.7941 13.0883C22.9255 13.1377 23.3635 13.4306 23.164 13.5416C23.0245 13.6195 22.8931 13.4484 22.7666 13.4403C22.6172 13.4306 22.5524 13.4589 22.4193 13.4922C22.1403 13.562 21.5417 13.7428 21.759 13.8158C21.7752 13.8222 21.8061 13.8271 21.8061 13.8271L21.9131 13.8457C21.9131 13.8457 22.176 13.9057 22.3349 13.9682C22.5749 14.0631 22.6886 14.1678 22.9092 14.2975C23.0357 14.3705 23.0909 14.4436 23.2288 14.4849C23.3553 14.5215 23.4364 14.4849 23.5662 14.5068C23.7365 14.5369 23.8322 14.5718 23.988 14.6464C24.2199 14.7575 24.3043 14.8922 24.512 15.0414C24.6158 15.1168 24.7033 15.1282 24.7813 15.2296C24.7992 15.2523 24.8138 15.2645 24.822 15.2912C24.8496 15.3837 24.6694 15.3293 24.5737 15.314C24.4683 15.2962 24.4245 15.2442 24.3272 15.1996C24.1828 15.1314 24.1146 15.0568 23.9572 15.0284C23.8437 15.0065 23.7755 15.0236 23.6588 15.03C23.5452 15.0348 23.4852 15.0519 23.3715 15.0535C23.1786 15.0568 23.0698 15.0398 22.88 14.9999C22.6674 14.9554 22.562 14.8727 22.3512 14.8288C22.1126 14.7793 21.6909 14.575 21.7314 14.7793C21.7525 14.8775 21.9764 14.9602 21.9764 14.9602C21.9764 14.9602 22.1305 15.043 22.2765 15.1078C22.4226 15.1711 22.5036 15.2677 22.5036 15.2677L22.6042 15.3424C22.6042 15.3424 22.7079 15.4851 22.8443 15.6465C22.9773 15.8055 23.2141 15.8006 23.2141 15.8006C23.2141 15.8006 23.3569 15.8006 23.665 15.8638C23.9717 15.9271 24.2881 16.1168 24.2881 16.1168C24.2881 16.1168 24.5265 16.2807 24.666 16.4454C24.8039 16.6101 24.7244 16.6928 24.7066 16.7098C24.6905 16.7276 24.6968 16.7195 24.6774 16.7276C24.6613 16.7357 24.4893 16.52 24.4893 16.52L24.366 16.4154C24.366 16.4154 24.2459 16.331 24.0902 16.2807C23.9345 16.2312 23.8825 16.2645 23.8825 16.2645C23.8825 16.2645 23.5516 16.3569 23.2628 16.3488C22.9773 16.3407 22.828 16.2263 22.828 16.2263L22.6463 16.1046C22.6463 16.1046 22.3737 15.8491 22.3639 15.97C22.3574 16.052 22.484 16.1428 22.484 16.1428C22.484 16.1428 22.5717 16.2311 22.6301 16.2872C22.7404 16.3958 22.786 16.4503 22.9124 16.5629C23.0389 16.6766 23.1168 16.6766 23.1168 16.6766C23.1168 16.6766 23.1849 16.6927 23.2108 16.6977C23.2369 16.7025 23.2823 16.7147 23.2823 16.7147C23.2823 16.7147 23.3245 16.731 23.5223 16.8113C23.7186 16.8907 23.9312 17.0636 23.9312 17.0636C23.9312 17.0636 23.9507 17.0798 23.9799 17.0855C24.009 17.0888 24.0674 17.118 24.0837 17.1228C24.1015 17.1269 24.1518 17.1269 24.2654 17.1431C24.3806 17.1602 24.3368 17.2332 24.3368 17.2332L24.3173 17.2607L24.2231 17.324C24.2231 17.324 24.1015 17.3589 24.0187 17.3629C23.9344 17.3677 23.8144 17.3208 23.8144 17.3208L23.5596 17.225C23.5596 17.225 23.3017 17.1569 23.2465 17.1479C23.1913 17.1398 22.961 17.0936 22.9221 17.0855C22.8848 17.0767 22.7696 17.0352 22.7388 17.0174C22.7079 17.0004 22.6512 16.989 22.5117 16.9209C22.3737 16.8528 22.3186 16.7741 22.1467 16.7197C21.9731 16.6645 21.8677 16.6533 21.7378 16.7433C21.514 16.8974 22.0752 16.9226 22.3543 17.062C22.7664 17.2648 22.9983 17.414 23.0957 17.6331C23.1946 17.8529 23.2936 17.9324 23.2936 17.9324C23.2936 17.9324 23.584 18.0785 23.7137 18.2317C23.7851 18.3144 23.7949 18.3826 23.8662 18.4653C24.0252 18.6518 24.3335 18.6413 24.3952 18.7995C24.4536 18.947 24.1453 18.8806 23.9847 18.8659C23.6959 18.8375 23.6261 18.5731 23.3568 18.4669C23.2044 18.406 23.1071 18.406 22.9512 18.3526C22.6673 18.2592 22.5343 18.1368 22.2504 18.0484C22.0784 17.9957 21.7668 17.7694 21.8059 17.9437C21.8123 17.9859 21.8382 18.0184 21.8495 18.0436C21.8642 18.0687 21.9356 18.1612 21.9356 18.1612C21.9356 18.1612 22.0312 18.2877 22.075 18.321C22.1156 18.3559 22.2989 18.4938 22.5617 18.6365C22.8213 18.7793 23.0483 19.0535 23.0483 19.0535C23.0483 19.0535 23.1263 19.1655 23.1636 19.2434C23.2025 19.3311 23.1749 19.3577 23.2366 19.4794C23.2933 19.6003 23.3209 19.6238 23.3988 19.6985C23.5902 19.8826 23.7914 19.846 24.0346 19.9459C24.1012 19.9742 24.106 19.9839 24.1774 20.0602C24.2488 20.1356 24.1644 20.168 24.1644 20.168C24.1644 20.168 23.8935 20.2378 23.7183 20.2231C23.4912 20.2053 23.3889 20.1355 23.1683 20.0252C22.9445 19.9157 22.8277 19.7186 22.805 19.7065C22.7855 19.6934 22.7304 19.6351 22.6882 19.605C22.6461 19.5751 22.5373 19.5523 22.44 19.5255C22.341 19.4988 22.2858 19.4939 22.187 19.4671C22.0523 19.4289 21.9127 19.3698 21.8494 19.3495C21.7861 19.3276 21.6418 19.3016 21.5363 19.3641C21.3254 19.489 21.864 19.5733 22.0311 19.7527C22.1171 19.8427 22.1527 19.906 22.2339 20.0009C22.2956 20.0739 22.3215 20.125 22.3979 20.1818C22.4497 20.2198 22.5454 20.2612 22.5454 20.2612C22.5454 20.2612 22.6751 20.3213 22.8649 20.4259C23.0548 20.5305 23.277 20.8265 23.277 20.8265L23.4116 21.0326L23.4911 21.1502L23.5122 21.2046L23.5413 21.271C23.5413 21.271 23.6388 21.3976 23.7101 21.4389C23.7816 21.4819 23.7685 21.5192 23.7685 21.5192C23.7685 21.5192 23.7605 21.5453 23.7101 21.5737C23.6614 21.6037 23.6338 21.5785 23.5625 21.5574C23.4911 21.5372 23.4441 21.4691 23.3825 21.4195C23.3176 21.3676 23.2494 21.2419 23.1343 21.1705C23.0321 21.1089 22.8991 21.087 22.8471 21.0708C22.7968 21.0522 22.6703 20.9727 22.62 20.9507C22.5714 20.9312 22.44 20.8712 22.44 20.8712C22.44 20.8712 22.187 20.7301 22.0472 20.6921C21.9078 20.653 21.9969 20.7383 21.9969 20.7383C21.9969 20.7383 22.122 20.9329 22.2419 21.0107C22.3978 21.1138 22.6167 21.2047 22.5453 21.2881C22.4966 21.3425 22.4317 21.323 22.3603 21.3149C22.2436 21.3012 22.1024 21.1615 22.1024 21.1615C22.1024 21.1615 22.0441 21.1235 21.7829 21.0407C21.5232 20.9555 21.619 21.0983 21.679 21.1754C21.7375 21.25 21.817 21.2929 21.817 21.2929L21.9939 21.3725L22.075 21.3976C22.075 21.3976 22.1465 21.4105 22.3816 21.4657C22.6168 21.5192 22.7467 21.6337 22.7467 21.6337C22.7467 21.6337 22.8732 21.7512 23.0483 21.8811C23.2268 22.0125 23.402 22.0458 23.4994 22.0588C23.5967 22.0709 23.5934 22.139 23.5934 22.139C23.5934 22.139 23.6064 22.2015 23.6001 22.2218C23.5968 22.2429 23.5757 22.26 23.5545 22.26C23.535 22.26 23.5254 22.2681 23.4995 22.2819C23.4735 22.2949 23.3729 22.3111 23.3729 22.3111C23.3729 22.3111 23.1101 22.303 22.9025 22.2518C22.6981 22.2015 22.5163 22.0588 22.4968 22.0507C22.4807 22.0426 22.2892 21.9364 22.1562 21.8942C22.0281 21.8512 21.822 21.8699 21.7992 21.878C21.7782 21.8861 21.7067 21.8975 21.5851 21.9332C21.4619 21.9656 21.6159 22.0126 21.6159 22.0126L21.7036 22.0207L21.9128 22.0369C21.9128 22.0369 22.1302 22.062 22.3135 22.1301C22.4968 22.1967 22.6169 22.3314 22.7386 22.4546C22.8602 22.5755 22.995 22.655 22.995 22.655L23.0923 22.7183L23.1426 22.7563L23.1556 22.7896C23.1556 22.7896 23.1507 22.8066 23.1426 22.8276C23.1345 22.8496 23.1037 22.8657 23.1037 22.8657C23.1037 22.8657 23.0582 22.8576 23.0388 22.8576C23.0161 22.8576 22.8782 22.7846 22.776 22.74C22.6706 22.6938 22.617 22.6499 22.5034 22.6223C22.4061 22.5988 22.2764 22.5882 22.2471 22.5972C22.218 22.6053 22.0037 22.6354 21.8382 22.6467C21.6729 22.6596 21.53 22.6621 21.3353 22.6385C21.058 22.6053 20.6897 22.3862 20.6426 22.4471C20.5469 22.5753 20.839 22.6118 20.9817 22.6937C21.1764 22.8064 21.5139 22.9079 21.5139 22.9079C21.5139 22.9079 21.7604 22.9622 21.9048 23.0303C22.2211 23.1772 22.3169 23.3945 22.5716 23.6233C22.7111 23.7514 22.8247 23.8066 23.0128 23.8342C23.1751 23.8578 23.1718 23.8383 23.4281 23.788C23.686 23.737 23.8419 23.4927 23.9164 23.582C23.9311 23.5991 23.9246 23.6153 23.9213 23.6405C23.9164 23.6656 23.8954 23.7119 23.8954 23.7119C23.8954 23.7119 23.8662 23.7532 23.8208 23.8002C23.7738 23.8464 23.5969 23.943 23.5044 23.9811C23.4119 24.0193 23.1849 24.0825 22.8993 24.0736C22.6138 24.0654 22.2115 23.8464 22.2115 23.8464L21.9228 23.7247C21.9228 23.7247 21.7897 23.6623 21.6989 23.6282C21.4588 23.5373 21.3063 23.5455 21.0597 23.4806C20.9072 23.4393 20.8067 23.3962 20.6687 23.3679C20.5292 23.3379 20.6087 23.3931 20.6217 23.4125C20.6866 23.5008 20.7741 23.5292 20.8845 23.5804C21.0306 23.6518 21.1327 23.6372 21.282 23.7005C21.4491 23.7679 21.5952 23.8628 21.6876 23.9228C21.7784 23.9812 21.8467 24.0477 21.9359 24.1402L22.2424 24.403C22.2424 24.403 22.3138 24.4614 22.322 24.4858C22.33 24.511 22.364 24.5742 22.3479 24.6756C22.33 24.7771 22.2473 24.7057 22.2473 24.7057L22.1662 24.6538L22.085 24.5791L21.9568 24.4729C21.9568 24.4729 21.8466 24.3731 21.6566 24.2766C21.4685 24.1784 21.2414 24.154 21.2414 24.154C21.2414 24.154 21.0402 24.1241 21.0467 24.1874C21.0564 24.2498 21.1016 24.2555 21.2607 24.2968C21.4213 24.3383 21.5267 24.4194 21.5267 24.4194C21.5267 24.4194 21.6907 24.541 21.809 24.6756C21.9258 24.8104 21.9599 24.9409 21.9599 24.9409C21.9599 24.9409 22.0199 25.0512 22.1708 25.1972C22.3217 25.3448 22.4013 25.2937 22.393 25.3652C22.3849 25.4366 22.3184 25.4495 22.3184 25.4495C22.3184 25.4495 22.2795 25.4462 22.2633 25.4462C22.2471 25.4462 22.2082 25.4243 22.166 25.4081C22.1238 25.3919 21.9648 25.2815 21.9648 25.2815C21.9648 25.2815 21.7151 25.0789 21.6874 25.0594C21.6565 25.0374 21.4214 24.8614 21.4214 24.8614C21.4214 24.8614 21.2819 24.7722 21.1828 24.7219C21.0807 24.6724 20.946 24.6206 20.8697 24.5954C20.7952 24.571 20.6556 24.5629 20.6556 24.5629C20.6556 24.5629 20.4885 24.5378 20.3863 24.4996C20.2257 24.4379 20.0391 24.2668 20.0181 24.2586C19.9953 24.2498 19.8461 24.1986 19.8169 24.2035C19.7878 24.2068 19.7196 24.4891 19.7034 24.6521C19.6353 25.3351 19.8169 25.7885 20.0992 26.4148C20.5063 27.3248 21.6403 28.4564 21.6403 28.4564C21.6403 28.4564 21.9259 28.6178 22.046 28.7143C22.385 28.9796 22.9464 29.3552 23.4444 29.8515C23.8694 30.2774 24.4341 31.0325 24.4341 31.0325C24.4341 31.0325 24.7616 31.4884 24.9142 31.8112C25.0992 32.2071 25.2485 32.8107 25.2485 32.8107C25.2485 32.8107 25.2615 32.9145 25.2712 32.9372C25.2842 32.9582 25.3133 32.9858 25.3329 32.9858L25.5307 32.9924C25.5502 32.9924 25.7757 32.9763 25.925 32.9388C26.0727 32.9015 26.4231 32.7409 26.6567 32.6193C26.887 32.4959 27.1644 32.2623 27.1644 32.2623C27.1644 32.2623 27.2179 32.2169 27.4873 31.9152C27.7599 31.6135 27.9351 31.1609 28.0015 30.9897C28.0665 30.8202 28.1201 30.4933 28.159 29.9352C28.201 29.3748 28.1249 28.7841 28.1249 28.7841C28.1249 28.7841 28.0227 27.96 27.9609 27.6793C27.8993 27.4003 27.7501 26.9428 27.7501 26.9428C27.7501 26.9428 27.6464 26.5357 27.6139 26.2786C27.5797 26.0214 27.575 25.6029 27.575 25.6029C27.575 25.6029 27.575 25.3466 27.6575 24.8729C27.7436 24.4016 28.0324 23.9262 28.0324 23.9262C28.0324 23.9262 28.1135 23.7664 28.4251 23.3933C28.7447 23.0112 28.8467 22.9512 29.1615 22.7232C29.4115 22.544 29.7341 22.2552 29.8398 22.3233C29.9566 22.3963 29.726 22.5424 29.6482 22.6186C29.452 22.8133 29.0854 23.1572 28.7884 23.6755C28.5289 24.1241 28.4316 24.4209 28.3668 24.7138C28.3018 25.0059 28.3295 25.327 28.3376 25.4366C28.3474 25.5461 28.4073 25.5064 28.4073 25.5064C28.4073 25.5064 29.0384 24.9994 29.3807 24.6157C29.7522 24.2004 30.0831 23.4614 30.2128 23.455C30.3004 23.4493 30.341 23.6472 30.3199 23.7389C30.239 24.1225 30.2114 24.1704 30.0863 24.425C29.9436 24.7171 29.8107 24.8469 29.6127 25.1162C29.4049 25.3985 29.3028 25.5064 29.1358 25.8802C28.8942 26.418 29.0352 26.8334 29.0352 26.8334C29.0352 26.8334 29.0644 27.0857 29.1779 27.0824C29.3679 27.0759 29.7847 26.5494 30.0573 26.1186C30.2586 25.8031 30.3314 25.4382 30.4629 25.2466C30.583 25.0772 30.6885 25.5225 30.6365 25.7853C30.5764 26.0976 30.4223 26.3783 30.0833 26.8203C29.7524 27.2518 29.7621 27.6623 29.7621 27.6623C29.7621 27.6623 29.728 27.8497 29.7004 28.2585C29.6746 28.6656 29.7913 29.2839 29.7913 29.2839C29.7913 29.2839 29.895 29.8005 29.9163 30.1923C29.9358 30.5864 29.9227 31.4812 29.5543 32.178C29.4084 32.457 29.0952 32.8432 29.0952 32.8432C29.0952 32.8432 28.8535 33.0914 28.6556 33.2357C28.4575 33.3801 27.9822 33.6057 27.9822 33.6057C27.9822 33.6057 27.653 33.7192 27.6076 33.729C27.5588 33.742 27.5297 33.7825 27.5297 33.7825C27.5297 33.7825 27.5588 33.8458 27.5718 33.8718C27.5831 33.8978 27.6756 34.1248 27.6756 34.1248C27.6756 34.1248 27.7745 34.446 27.8118 34.7008C27.8491 34.9554 27.8053 35.0138 27.7697 35.2085C27.734 35.3952 27.653 35.309 27.6318 35.6757C27.614 36.0003 27.76 36.1623 27.734 36.5259C27.7228 36.6849 27.5426 36.3248 27.455 36.1723C27.27 35.8411 27.3138 35.3318 27.3106 35.2054C27.3056 35.0788 27.2958 34.9392 27.2489 34.7803C27.1922 34.5725 27.1061 34.412 27.0105 34.2855C26.913 34.1605 26.8108 34.0892 26.7768 34.1022C26.7427 34.1136 26.7394 34.18 26.7394 34.2125C26.7378 34.2482 26.8059 34.3683 26.8205 34.3943C26.8384 34.4186 26.9601 34.6409 26.9601 34.6409C26.9601 34.6409 27.0135 34.8128 27.0346 35.1471C27.0558 35.4781 26.9535 35.8901 26.9535 35.8901C26.9535 35.8901 26.8204 36.3525 26.681 36.6251C26.5251 36.9251 26.1797 37.334 26.1797 37.334C26.1797 37.334 25.9315 37.5611 25.7448 37.9342C25.5616 38.3073 25.719 38.4696 25.6507 38.5182C25.5793 38.5652 25.4333 38.3024 25.3944 38.1256C25.357 37.9601 25.3749 37.8822 25.4431 37.6972C25.5064 37.5188 25.6557 37.2608 25.6557 37.2608L25.8779 36.8828C25.8779 36.8828 26.1472 36.3702 26.2316 35.997C26.3159 35.6272 26.2186 35.2152 26.2186 35.2152C26.2186 35.2152 26.2073 35.0789 26.1148 35.0853C26.0207 35.0902 25.9559 35.1714 25.9169 35.2703C25.8406 35.4747 25.9494 35.4375 25.8324 35.7781C25.7417 36.0457 25.7157 36.0101 25.667 36.169C25.6086 36.3588 25.5778 36.5535 25.5811 36.672C25.586 36.7887 25.5211 36.7401 25.5211 36.7401C25.5211 36.7401 25.4076 36.5291 25.4076 36.2664C25.4076 36.1236 25.4141 36.0426 25.4303 35.8997C25.4563 35.6709 25.5503 35.3206 25.5503 35.3206C25.5503 35.3206 25.6509 34.975 25.6299 34.6603C25.6057 34.3423 25.4953 34.284 25.4953 34.284C25.4953 34.284 25.4662 34.2418 25.3428 34.2482C25.2212 34.2581 25.2277 34.477 25.2277 34.477C25.2277 34.477 25.1903 34.7902 25.1417 34.9847C25.007 35.5217 24.827 35.804 24.509 36.2566C24.2202 36.6655 23.8293 37.0257 23.6329 37.1944C23.4382 37.3664 22.8379 37.8028 22.8379 37.8028L22.1339 38.2715C22.1339 38.2715 21.8549 38.5441 21.7282 38.8686C21.5985 39.1915 21.605 39.4445 21.6795 39.7414C21.7543 40.0399 21.8613 40.1762 21.9181 40.2604C21.9732 40.3417 22.082 40.4876 22.1177 40.6597C22.1404 40.765 22.1242 40.8283 22.1307 40.9353C22.1373 41.0295 22.1502 41.0814 22.1469 41.1771C22.1436 41.3264 22.1712 41.4317 22.0852 41.5534C22.0235 41.6459 21.8548 41.727 21.8548 41.727C21.8548 41.727 21.6635 41.8112 21.5497 41.881C20.3524 42.603 19.9275 43.0718 19.2526 43.8765C19.0384 44.1344 19.1959 44.1183 18.9671 44.4232C18.8284 44.605 18.508 44.605 18.392 44.8223C18.2306 45.1191 18.7554 45.4112 18.1494 45.6725C17.3683 46.0099 16.0242 45.7681 15.9974 45.6628C15.9245 45.3739 16.2602 45.0398 16.3795 44.9067C16.9262 44.3097 17.4145 44.295 17.5938 43.8003C17.6327 43.6949 17.6173 43.6041 18.0528 43.2812C18.3587 43.0556 19.5802 42.1358 20.1141 41.5226C20.2973 41.3117 20.4547 41.1723 20.5342 40.945C20.6154 40.7145 20.4547 40.5702 20.4547 40.5702L20.2356 40.2133L19.8155 39.4621C19.8155 39.4621 19.6388 39.0631 19.543 38.8327C19.4441 38.6023 19.2607 37.9825 19.2607 37.9825C19.2607 37.9825 19.1262 37.4245 19.1033 37.061C19.0628 36.4089 19.152 36.0294 19.3241 35.3966C19.5463 34.5758 20.0508 34.2318 20.252 33.4174C20.3105 33.1806 20.3234 32.7749 20.2033 32.7944C20.0897 32.8155 20.08 33.1351 19.9925 33.3493C19.668 34.1572 19.2396 34.5109 19.0045 35.3479C18.8471 35.9141 18.7823 36.2501 18.7837 36.8373C18.7855 37.173 18.7725 37.1114 18.8584 37.6939C18.8925 37.9079 18.9444 38.0231 19.0077 38.2323C19.0531 38.3816 19.1748 38.6607 19.1748 38.6607C19.1748 38.6607 19.3419 39.0289 19.4003 39.2869C19.4181 39.3762 19.4409 39.4263 19.4343 39.5156C19.423 39.6697 19.4505 39.7022 19.376 39.8417C19.2835 40.0153 19.3401 40.1175 19.045 40.1823C18.7822 40.2374 18.2452 40.0623 18.2452 40.0623C18.2452 40.0623 16.038 39.3939 14.629 39.5869C14.35 39.6242 14.2 39.7264 13.9193 39.7215C13.6638 39.7183 13.534 39.5187 13.2785 39.595C13.2266 39.6097 13.2104 39.6469 13.1633 39.6778C12.7902 39.9373 13.0757 40.3688 12.0927 40.1449C11.4891 40.007 10.7583 39.6373 10.8848 39.4052C11.0542 39.0969 11.2814 39.0466 11.7585 38.8503C12.2687 38.6426 13.0344 38.7011 13.1853 38.6914C13.3694 38.6767 13.6339 38.5486 13.9631 38.5405C14.5326 38.5307 14.6339 38.5989 14.6339 38.5989L15.6007 38.6847L17.451 38.7076C17.451 38.7076 17.7819 38.6832 17.9133 38.6572C18.0464 38.6311 18.151 38.37 18.2239 38.2451C18.2954 38.1219 18.2207 37.9401 18.2207 37.9401L18.1657 37.8542L17.9896 37.5703L17.6643 37.0219L17.3034 36.3017C17.3034 36.3017 17.0674 35.8004 16.9417 35.4711C16.8167 35.1433 16.7437 34.9584 16.6609 34.6194C16.5742 34.2705 16.5206 33.9883 16.5093 33.7077C16.4956 33.3048 16.4688 32.9918 16.5815 32.6624Z" fill="black"/>
<path d="M28.5934 31.9939C28.9826 31.4943 29.0202 31.0302 29.0428 30.3764C29.0606 29.9012 28.8807 29.1687 28.8807 29.1687L28.8562 29.1151C28.8562 29.1151 28.7881 29.0266 28.7461 29.1435C28.7525 29.2466 28.7656 29.3293 28.7656 29.3293L28.7882 30.2727C28.7882 30.2727 28.759 30.748 28.5969 31.2379C28.3243 32.0653 27.6008 32.4335 27.4954 32.7321C27.315 33.2268 28.1278 32.5957 28.5934 31.9939Z" fill="white"/>
<path d="M24.5116 33.5211C24.5116 33.5211 24.3526 33.5665 24.3493 33.7237C24.3462 33.8812 24.3883 34.0174 24.3834 34.2073C24.3802 34.4491 24.1579 34.728 24.3007 34.8189C24.5457 34.9746 24.7565 33.8779 24.6819 33.7157C24.6073 33.5533 24.5343 33.5193 24.5116 33.5211Z" fill="white"/>
<path d="M21.7628 41.1241C21.7628 41.1241 21.7172 41.0998 21.6281 41.1339C21.5406 41.1679 21.5469 41.2589 21.5469 41.2589C21.5469 41.2589 21.5291 41.3562 21.6005 41.366C21.672 41.379 21.7887 41.2037 21.7887 41.1842C21.7887 41.1647 21.7628 41.1241 21.7628 41.1241Z" fill="white"/>
<path d="M19.1776 42.9625C19.1776 42.9625 19.1516 42.9886 19.1744 43.0063C19.1986 43.0275 19.2328 43.0014 19.2328 43.0014C19.2328 43.0014 19.6789 42.6527 19.9434 42.4077C20.2224 42.1449 20.6248 41.6923 20.6248 41.6923C20.6248 41.6923 20.6523 41.6583 20.6215 41.6291C20.5889 41.5998 20.5128 41.6452 20.4495 41.6744C20.3944 41.7036 20.3619 41.7344 20.3198 41.7686C20.2809 41.8043 20.1478 41.9406 20.1478 41.9406L19.8038 42.2748L19.5864 42.4791L19.3756 42.6802L19.288 42.7809C19.288 42.7809 19.2652 42.8199 19.2588 42.8296C19.2522 42.8408 19.2296 42.87 19.2296 42.87C19.2296 42.87 19.1971 42.9009 19.1971 42.9106C19.1971 42.9188 19.1874 42.9269 19.1874 42.9367C19.1841 42.9496 19.1776 42.9625 19.1776 42.9625Z" fill="white"/>
<path d="M18.4061 43.469C18.4061 43.469 18.3583 43.4301 18.2829 43.4673C18.2066 43.5079 18.1255 43.6116 18.1189 43.623C18.1117 43.6377 18.0703 43.6929 18.0987 43.7415C18.1271 43.7902 18.2236 43.7187 18.2382 43.7155C18.252 43.7155 18.3778 43.615 18.3778 43.615C18.3778 43.615 18.4507 43.5695 18.4061 43.469Z" fill="white"/>
<path d="M16.9285 44.9647C16.9285 44.9647 16.8653 44.848 16.7825 44.8966C16.6997 44.9453 16.6543 44.9616 16.5781 45.0669C16.5651 45.0847 16.4832 45.1903 16.4685 45.2178C16.454 45.2439 16.372 45.3996 16.5383 45.4109C16.8239 45.427 16.6364 45.2439 16.7346 45.1724C16.8141 45.1173 16.9633 45.1319 16.965 45.0735C16.9666 45.0151 16.9285 44.9647 16.9285 44.9647Z" fill="white"/>
<path d="M11.8669 38.9876C11.8669 38.9876 11.6958 39.0299 11.6828 39.0883C11.669 39.1499 11.7826 39.2083 11.8004 39.2115C11.8206 39.2147 11.8588 39.2602 11.9731 39.1823C12.0859 39.1061 12.081 39.0412 12.081 39.0412C12.081 39.0412 12.1475 38.9633 11.8669 38.9876Z" fill="white"/>
<path d="M14.6507 38.8971C14.6507 38.8971 14.649 38.8338 14.5282 38.842C14.4049 38.8486 14.379 38.8712 14.3757 38.8907C14.3717 38.9085 14.3822 38.9394 14.4917 38.9491C14.6028 38.9556 14.6474 38.949 14.6507 38.8971Z" fill="white"/>
<path d="M17.2829 38.9734C17.0615 38.9718 17.1313 38.9784 16.995 38.9848C16.7476 38.9978 16.613 38.988 16.3688 38.9718C16.0264 38.9491 15.4968 38.8647 15.4968 38.8647C15.4968 38.8647 15.4303 38.8486 15.4035 38.8924C15.3791 38.9328 15.4684 39.0269 15.5479 39.0514C15.9818 39.186 16.0053 39.1634 16.3006 39.1681C16.4653 39.1698 16.557 39.1535 16.7208 39.1438C16.9285 39.1277 17.025 39.16 17.2513 39.1C17.3104 39.0853 17.3673 38.9751 17.2829 38.9734Z" fill="white"/>
<path d="M18.766 38.5333C18.766 38.5333 18.7214 38.4816 18.6296 38.5269C18.5389 38.5707 18.4837 38.6696 18.4837 38.6696C18.4837 38.6696 18.4408 38.7377 18.5324 38.7281C18.6216 38.7151 18.7019 38.6762 18.723 38.6633C18.7465 38.6501 18.813 38.5885 18.766 38.5333Z" fill="white"/>
<path d="M17.4755 20.7367C17.4755 20.7367 18.1017 20.1502 18.5502 19.3748C18.8162 18.9124 18.9322 17.836 18.7036 18.1037C18.6004 18.2262 18.4756 18.7843 18.2776 19.1979C17.9953 19.7867 17.3927 20.6207 17.3927 20.6207C17.3927 20.6207 17.263 20.8981 17.4755 20.7367Z" fill="white"/>
<path d="M14.972 22.2266C14.972 22.2266 14.9055 22.2785 14.9355 22.3613C14.9672 22.4456 15.0946 22.3824 15.0946 22.3824C15.0946 22.3824 15.3841 22.2729 15.6875 22.2615C15.9917 22.2485 16.4135 22.3393 16.4135 22.3393C16.4135 22.3393 16.6146 22.3945 16.6479 22.4075C16.6811 22.4213 16.7907 22.474 16.8094 22.4804C16.8256 22.4877 16.9302 22.5389 16.9886 22.4861C17.047 22.4326 16.6228 22.0473 16.1897 21.9889C15.4685 21.8907 14.9949 22.2014 14.9949 22.2014L14.972 22.2266Z" fill="white"/>
<path d="M12.0021 24.7657C12.0531 24.8096 12.2941 24.3505 12.4952 24.06C12.6428 23.8476 12.9122 23.4923 12.9122 23.4923C12.9122 23.4923 13.0338 23.3292 12.8279 23.4201C12.7444 23.4575 12.5156 23.6318 12.3542 23.9523C12.2178 24.2248 11.9485 24.7227 12.0021 24.7657Z" fill="white"/>
<path d="M10.3359 22.7717C10.3359 22.7717 10.2839 22.9494 10.4916 23.1716C10.7008 23.3947 10.7544 23.5788 10.8875 23.4458C10.924 23.4093 10.7577 23.1092 10.6733 23.0257C10.5865 22.9429 10.5248 22.8747 10.5248 22.8747L10.4705 22.8301L10.4007 22.7912L10.361 22.7751C10.361 22.7751 10.3504 22.7653 10.3359 22.7717Z" fill="white"/>
<path d="M9.66032 21.0684C9.66032 21.0684 9.43486 21.1105 9.37971 21.22C9.32371 21.3296 9.63923 21.263 9.63923 21.263C9.63923 21.263 9.84845 21.2743 9.85341 21.1949C9.85826 21.1138 9.82673 21.1057 9.66032 21.0684Z" fill="white"/>
<path d="M6.07754 27.0062C5.96238 26.973 5.94298 27.1994 5.92747 27.2723C5.9145 27.3453 5.97946 27.4913 6.00614 27.4913C6.03209 27.4896 6.12373 27.347 6.12858 27.2773C6.13353 27.2059 6.17898 27.038 6.07754 27.0062Z" fill="white"/>
<path d="M9.79853 31.4284C9.79853 31.4284 9.59247 31.2653 9.56083 31.3302C9.53004 31.3951 9.73041 31.6814 9.73041 31.6814C9.73041 31.6814 9.79199 31.7756 9.8869 31.7333C9.98012 31.6879 9.9469 31.5841 9.9469 31.5841C9.9469 31.5841 9.88363 31.4511 9.79853 31.4284Z" fill="white"/>
<path d="M8.24484 26.6453C8.24484 26.6453 8.19212 26.6316 8.17345 26.6948C8.15394 26.758 8.15563 26.8611 8.14181 26.9859C8.13053 27.0834 8.16702 27.3429 8.16702 27.3429C8.16702 27.3429 8.18726 27.5489 8.2286 27.6715C8.27321 27.806 8.39164 27.9975 8.39164 27.9975C8.39164 27.9975 8.43624 28.0957 8.4914 28.0909C8.54571 28.0852 8.53273 28.0211 8.53273 28.0211C8.53273 28.0211 8.36 27.3366 8.35515 27.2667C8.3348 27.0389 8.3348 26.7614 8.3348 26.7614L8.33321 26.72C8.33321 26.72 8.33153 26.6469 8.24484 26.6453Z" fill="white"/>
<path d="M8.51413 24.5571C8.51413 24.5571 8.41922 24.5393 8.3317 24.7217C8.24333 24.9067 8.26199 24.9814 8.27001 24.9895C8.27654 24.9976 8.34625 24.996 8.45824 24.8249C8.56939 24.6553 8.54419 24.5903 8.54419 24.5903C8.54419 24.5903 8.53765 24.5571 8.51413 24.5571Z" fill="white"/>
<path d="M11.1249 26.449C11.1249 26.449 11.2392 26.6201 11.0203 26.5804C10.8006 26.5407 10.339 26.1764 10.1507 26.0784C9.96493 25.9802 9.65912 25.9493 9.78735 25.8342C9.81087 25.8147 9.8173 25.796 9.85379 25.7945C9.89196 25.7928 10.0185 25.8422 10.0265 25.8479C10.0331 25.8511 10.3583 25.9858 10.3704 25.989C10.3818 25.9939 10.5643 26.0718 10.694 26.148C10.8239 26.2249 11.0347 26.3726 11.0347 26.3726L11.1249 26.449Z" fill="white"/>
<path d="M17.2093 31.6873C17.2693 31.8754 16.5166 31.2897 16.1134 30.9791C15.0452 30.1565 13.7375 28.4702 13.9006 28.321C14.0352 28.1984 14.5714 28.9707 15.3574 29.8215C16.1978 30.7284 17.1744 31.5753 17.2093 31.6873Z" fill="white"/>
<path d="M20.3518 30.8813C20.1182 31.1303 20.0355 31.4492 20.1701 31.6876C20.3015 31.9195 20.3421 31.3485 20.4882 31.1806C20.6147 31.0337 20.6925 31.0573 20.9002 30.9097C21.2539 30.6607 20.6472 30.5642 20.3518 30.8813Z" fill="white"/>
<path d="M19.0148 25.5585C18.8542 25.5326 18.8591 25.7767 18.8817 25.9496C18.9889 26.7233 19.3361 27.3195 19.7999 27.8809C20.0823 28.2232 20.8562 28.8331 20.9453 28.7351C20.9779 28.7001 20.2088 28.1056 19.7188 27.3416C19.3717 26.7997 19.1867 26.3414 19.143 25.8944C19.1382 25.8376 19.1511 25.5805 19.0148 25.5585Z" fill="white"/>
<path d="M16.0192 14.0895C15.6704 14.2784 15.0653 14.4448 15.0653 14.4448C15.0653 14.4448 15.0377 14.5048 15.1156 14.4984C15.634 14.457 15.8319 14.3921 16.1077 14.2704C16.3835 14.1512 16.5838 13.8202 16.5838 13.8202C16.5838 13.8202 16.6958 13.6142 16.4882 13.7837C16.4232 13.8356 16.2106 13.9848 16.0192 14.0895Z" fill="white"/>
<path d="M20.2275 12.7598C20.2275 12.7598 20.1091 12.7337 20.0296 12.7833C19.95 12.8336 19.9727 12.8733 19.9727 12.8733C19.9727 12.8733 20.0961 12.9674 20.1836 12.9829C20.2713 12.9959 20.4594 13.0778 20.4531 13.0145C20.4448 12.9497 20.3395 12.8337 20.3021 12.8021C20.2681 12.7686 20.2275 12.7598 20.2275 12.7598Z" fill="white"/>
<path d="M18.2457 16.3936C18.2659 16.4349 18.6196 16.3384 18.7559 16.2621C18.8622 16.2021 18.9043 16.0009 18.9043 16.0009C18.9043 16.0009 18.9335 15.8062 18.8882 15.8816C18.6861 16.2119 18.2261 16.3513 18.2457 16.3936Z" fill="white"/>
<path d="M18.2347 15.4867C18.3775 15.2126 17.8428 15.7715 17.5704 15.9158C17.4041 16.0035 17.1331 16.1202 17.1331 16.1202C17.1331 16.1202 17.0617 16.2094 17.1615 16.2013C17.2613 16.1948 17.5152 16.2808 17.7213 16.1218C17.77 16.0829 17.9841 15.7714 17.9841 15.7714C17.9841 15.7714 18.1665 15.6164 18.2347 15.4867Z" fill="white"/>
<path d="M18.1525 16.6532C18.1637 16.6978 18.7631 16.6831 18.9133 16.6378C19.0317 16.6053 19.0966 16.3961 19.0966 16.3961C19.0966 16.3961 19.168 16.2128 19.1063 16.2744C18.8346 16.5518 18.142 16.6086 18.1525 16.6532Z" fill="white"/>
<path d="M8.52452 22.1442C8.52452 22.1442 8.43372 22.111 8.32099 22.2805C8.209 22.4492 7.70451 23.2158 7.79372 23.3285C7.89991 23.4615 8.33713 22.6439 8.47032 22.4914C8.60488 22.3365 8.54972 22.1807 8.54972 22.1807C8.54972 22.1807 8.54814 22.1458 8.52452 22.1442Z" fill="white"/>
<path d="M19.5145 35.9638C19.4594 36.2185 19.5242 36.7393 19.612 36.8414C19.826 37.0993 19.6946 36.4375 19.7254 36.2054C19.7514 35.9897 19.7773 35.9151 19.8845 35.6846C20.0759 35.2694 19.6266 35.4219 19.5145 35.9638Z" fill="white"/>
<path d="M17.6732 13.8135C17.6732 13.8135 17.507 13.8184 17.3772 13.8898C17.2458 13.9612 17.2133 14.0626 17.2133 14.0626C17.2133 14.0626 17.1865 14.1356 17.2044 14.1754C17.2425 14.2621 17.4226 14.1307 17.5483 14.1737C17.6497 14.2102 17.6984 14.2402 17.7762 14.3334C17.8443 14.4146 17.9636 14.5314 18.0383 14.4648C18.1152 14.4 18.087 14.2337 18.087 14.2337C18.087 14.2337 17.9985 13.9628 17.8826 13.8865C17.7657 13.8087 17.6732 13.8135 17.6732 13.8135Z" fill="white"/>
<path d="M14.9107 15.7189C14.9107 15.7189 14.8173 15.7334 14.8393 15.847C14.8612 15.9582 14.9221 15.9411 14.9221 15.9411C14.9221 15.9411 15.1151 15.8583 15.1038 15.7424C15.0899 15.6256 14.9107 15.7189 14.9107 15.7189Z" fill="white"/>
<path d="M13.5619 15.1137C13.5619 15.1137 13.4605 15.1178 13.3891 15.2434C13.3194 15.3684 13.278 15.4982 13.278 15.4982C13.278 15.4982 13.2448 15.6621 13.3031 15.7139C13.3623 15.765 13.4272 15.6078 13.5123 15.5461C13.5633 15.5096 13.5951 15.4933 13.6478 15.456C13.72 15.4064 13.8376 15.4697 13.8295 15.3238C13.8191 15.1769 13.6633 15.1072 13.5619 15.1137Z" fill="white"/>
<path d="M17.9211 13.5442C17.9211 13.5442 17.6916 13.511 17.7004 13.5994C17.7086 13.682 17.8247 13.6326 17.8992 13.6659C17.9722 13.6991 18.0209 13.7121 18.0792 13.7657C18.1223 13.8037 18.1173 13.8784 18.1701 13.88C18.2431 13.8817 18.2286 13.8516 18.2286 13.8516C18.2286 13.8516 18.162 13.6537 18.0753 13.5978C17.9893 13.5409 17.9211 13.5442 17.9211 13.5442Z" fill="white"/>
<path d="M20.4812 14.4702C20.4487 14.5952 20.4292 14.6381 20.4292 14.6381C20.4292 14.6381 20.3644 14.8921 20.6207 14.7987C20.877 14.7046 20.744 14.7443 20.9288 14.6544C21.1106 14.5651 21.1073 14.6146 21.2404 14.6211C21.2858 14.6227 21.315 14.6243 21.3832 14.6114C21.4415 14.5984 21.4172 14.5302 21.2875 14.4953C21.1481 14.4588 20.9776 14.467 20.7798 14.4653C20.663 14.4638 20.5152 14.3454 20.4812 14.4702Z" fill="white"/>
<path d="M20.5955 13.5315C20.5955 13.5315 20.4786 13.5048 20.3975 13.5551C20.318 13.6045 20.3424 13.6443 20.3424 13.6443C20.3424 13.6443 20.4641 13.7409 20.5533 13.7538C20.6409 13.7692 20.8291 13.8503 20.8226 13.7855C20.8128 13.7222 20.709 13.6046 20.6717 13.573C20.6345 13.5412 20.5955 13.5315 20.5955 13.5315Z" fill="white"/>
<path d="M21.046 15.2937C21.046 15.2937 20.9209 15.2685 20.835 15.3164C20.7506 15.3634 20.7733 15.4016 20.7733 15.4016C20.7733 15.4016 20.9064 15.4909 21.0004 15.5046C21.0946 15.5176 21.2957 15.5939 21.2876 15.533C21.2796 15.473 21.1659 15.3619 21.1286 15.3319C21.0912 15.3018 21.046 15.2937 21.046 15.2937Z" fill="white"/>
<path d="M21.0852 15.9329C21.0852 15.9329 20.952 15.903 20.8612 15.9581C20.7704 16.0124 20.7978 16.0563 20.7978 16.0563C20.7978 16.0563 20.9359 16.1609 21.0365 16.1756C21.1354 16.191 21.3496 16.2786 21.3398 16.2088C21.3317 16.1391 21.2116 16.0125 21.1695 15.9785C21.1305 15.9426 21.0852 15.9329 21.0852 15.9329Z" fill="white"/>
<path d="M21.1455 16.5568C21.1455 16.5568 21.0012 16.5236 20.9037 16.5852C20.8048 16.6467 20.8356 16.6963 20.8356 16.6963C20.8356 16.6963 20.9848 16.8131 21.0919 16.831C21.2007 16.8481 21.4326 16.9477 21.423 16.869C21.4132 16.7912 21.2833 16.6467 21.238 16.6087C21.1958 16.5681 21.1455 16.5568 21.1455 16.5568Z" fill="white"/>
<path d="M21.1321 17.3271C21.1321 17.3271 20.9877 17.2963 20.8903 17.3572C20.7913 17.4172 20.819 17.4666 20.819 17.4666C20.819 17.4666 20.9714 17.5834 21.0785 17.6013C21.1856 17.6184 21.4175 17.7182 21.4078 17.6402C21.3966 17.5616 21.2683 17.4172 21.2246 17.379C21.1791 17.3394 21.1321 17.3271 21.1321 17.3271Z" fill="white"/>
<path d="M21.0266 18.8294C21.0266 18.8294 20.8805 18.7978 20.7832 18.8595C20.6858 18.9203 20.715 18.969 20.715 18.969C20.715 18.969 20.8643 19.0866 20.9714 19.1037C21.0801 19.1199 21.3121 19.2213 21.3024 19.1418C21.2926 19.0639 21.163 18.9203 21.1175 18.8805C21.0736 18.8408 21.0266 18.8294 21.0266 18.8294Z" fill="white"/>
<path d="M21.1239 18.0785C21.1239 18.0785 20.9584 18.0404 20.8415 18.1117C20.7295 18.1814 20.7637 18.2383 20.7637 18.2383C20.7637 18.2383 20.9373 18.3745 21.0621 18.394C21.1855 18.4143 21.4548 18.5287 21.445 18.4395C21.4321 18.3478 21.2827 18.1815 21.231 18.1369C21.179 18.0915 21.1239 18.0785 21.1239 18.0785Z" fill="white"/>
<path d="M20.9555 19.5089C20.9555 19.5089 20.8354 19.4804 20.7544 19.5316C20.6732 19.5819 20.6993 19.6216 20.6993 19.6216C20.6993 19.6216 20.8226 19.7198 20.9102 19.7328C20.9994 19.7474 21.1892 19.8293 21.1827 19.7644C21.173 19.6994 21.0675 19.5819 21.0303 19.5502C20.9946 19.517 20.9555 19.5089 20.9555 19.5089Z" fill="white"/>
<path d="M20.8415 20.1597C20.8415 20.1597 20.7442 20.1386 20.6761 20.18C20.6113 20.2214 20.6306 20.2546 20.6306 20.2546C20.6306 20.2546 20.7328 20.3341 20.8059 20.3462C20.8788 20.3576 21.0395 20.4274 21.0329 20.3723C21.0264 20.3195 20.9356 20.2214 20.9064 20.1946C20.8756 20.1678 20.8415 20.1597 20.8415 20.1597Z" fill="white"/>
<path d="M20.7024 20.7534C20.7024 20.7534 20.6147 20.7332 20.553 20.7712C20.4946 20.8077 20.5109 20.8394 20.5109 20.8394C20.5109 20.8394 20.6033 20.9108 20.6699 20.9206C20.7364 20.9327 20.8791 20.9935 20.8728 20.9457C20.8678 20.8978 20.7883 20.8077 20.7607 20.7842C20.7331 20.76 20.7024 20.7534 20.7024 20.7534Z" fill="white"/>
<path d="M20.5626 21.24C20.5626 21.24 20.4718 21.2197 20.4135 21.2562C20.3517 21.2943 20.3696 21.3243 20.3696 21.3243C20.3696 21.3243 20.4621 21.3973 20.5286 21.4071C20.5952 21.4176 20.7379 21.48 20.7314 21.4307C20.7266 21.3828 20.6471 21.2944 20.6178 21.2708C20.5918 21.2466 20.5626 21.24 20.5626 21.24Z" fill="white"/>
<path d="M20.3931 21.8046C20.3931 21.8046 20.3217 21.7876 20.2714 21.8176C20.2227 21.8492 20.2389 21.8728 20.2389 21.8728C20.2389 21.8728 20.3135 21.9313 20.3671 21.941C20.4206 21.949 20.5374 21.9994 20.531 21.9587C20.5261 21.9206 20.4612 21.8492 20.4401 21.829C20.4174 21.8095 20.3931 21.8046 20.3931 21.8046Z" fill="white"/>
<path d="M20.1896 22.3323C20.1896 22.3323 20.1279 22.3176 20.0857 22.3435C20.0436 22.3703 20.0566 22.3921 20.0566 22.3921C20.0566 22.3921 20.1214 22.4416 20.1669 22.4481C20.2123 22.4571 20.3128 22.5001 20.308 22.4652C20.3048 22.432 20.248 22.3703 20.2302 22.3541C20.2089 22.3371 20.1896 22.3323 20.1896 22.3323Z" fill="white"/>
<path d="M19.9798 22.8346C19.9798 22.8346 19.9164 22.8208 19.8743 22.8476C19.8336 22.8727 19.8483 22.8938 19.8483 22.8938C19.8483 22.8938 19.91 22.9441 19.957 22.9522C20.004 22.9587 20.1029 23.0017 20.0981 22.9693C20.0949 22.9335 20.0381 22.8727 20.0203 22.8557C20.0009 22.8394 19.9798 22.8346 19.9798 22.8346Z" fill="white"/>
<path d="M6.40018 25.3883C6.40018 25.3883 6.29556 25.591 6.34745 25.7023C6.39859 25.8143 6.53969 25.5246 6.53969 25.5246C6.53969 25.5246 6.68564 25.2357 6.62648 25.1831C6.56648 25.1296 6.53168 25.2788 6.40018 25.3883Z" fill="white"/>
<path d="M21.1664 51.4327V51.0386C21.1664 50.143 21.6191 49.9679 22.9413 49.9614C24.1581 49.9679 24.5879 50.1203 24.5879 50.8926V53.8727H25.0372V54.5444H22.0652C21.439 54.5444 21.0303 54.1144 21.0303 53.5856V52.982C21.0303 52.4612 21.2962 52.007 22.2275 52.0021H23.3891V51.0952C23.3891 50.6215 23.3566 50.5647 22.8814 50.5647H22.8765C22.3071 50.5647 22.2698 50.6394 22.2698 51.0952V51.4326H21.1664V51.4327ZM22.5456 52.5019C22.312 52.5019 22.174 52.6901 22.174 52.9236V53.4995C22.174 53.7316 22.2731 53.9165 22.5456 53.9198H22.9641C23.1945 53.9198 23.3828 53.8484 23.3828 53.4995L23.3859 52.5019H22.99C22.9803 52.5019 22.5456 52.5019 22.5456 52.5019Z" fill="black"/>
<path d="M18.3396 51.0839V50.0423H16.6816V50.6621H17.1237V53.8709H16.6816V54.5443H18.7582V53.8709H18.3396V52.1514C18.3396 51.9909 19.3171 50.7563 19.3171 50.8989V52.6072H20.4658V50.6848C20.4658 50.2452 20.1785 49.9614 19.6545 49.9614C19.0315 49.9613 18.6105 50.7448 18.3396 51.0839Z" fill="black"/>
<path d="M31.5554 53.8675V50.042H29.8633V50.6618H30.3371V53.8675H29.8633V54.544H31.9999V53.8675H31.5554Z" fill="black"/>
<path d="M14.074 51.0839V50.0423H12.416V50.6621H12.8581V53.8709H12.416V54.5443H14.4909V53.8709H14.074V52.1514C14.074 51.9909 15.0506 50.7563 15.0506 50.8989V52.6072H16.1984V50.6848C16.1984 50.2452 15.9128 49.9614 15.388 49.9614C14.7666 49.9613 14.3449 50.7448 14.074 51.0839Z" fill="black"/>
<path fill-rule="evenodd" clip-rule="evenodd" d="M11.7816 53.0698H10.6185V53.4072C10.6185 53.8648 10.5422 53.8842 9.97518 53.8906H9.96706C9.31725 53.8939 9.35385 53.829 9.36112 53.4072V52.6073H11.7815V50.8699C11.7815 50.2403 11.3062 49.9759 10.0522 49.9712H9.87216C8.51833 49.9776 8.1582 50.2859 8.1582 51.0646V53.6083C8.1582 54.4648 8.66428 54.6093 9.89725 54.6434H10.0318C11.3776 54.6125 11.7815 54.52 11.7815 53.7202V53.0698H11.7816ZM9.3742 50.9347C9.3742 50.698 9.44559 50.581 9.7165 50.5778H10.2267C10.4376 50.5778 10.5552 50.6719 10.5552 50.8406V52.1433H9.37409V50.9347H9.3742Z" fill="black"/>
<path d="M30.9424 49.1181V48.3037" stroke="black" stroke-width="0.0780364" stroke-miterlimit="10"/>
<path d="M27.146 51.0839V50.0423H25.4863V50.6621H25.9277V53.8709H25.4863V54.5443H27.5628V53.8709H27.146V52.1514C27.146 51.9909 28.121 50.7563 28.121 50.8989V52.6072H29.2712V50.6848C29.2712 50.2452 28.9823 49.9614 28.4566 49.9614C27.837 49.9613 27.4151 50.7448 27.146 51.0839Z" fill="black"/>
<path d="M6.70706 52.3556V51.7553H6.06062V53.8724H7.18076V54.5441H3.89648V53.8724H4.77007V49.1175H4.08388V48.2998H29.6649V49.1175H6.06062V51.0269H6.70706V50.4624H7.45094V52.3556H6.70706Z" fill="black"/>
<path d="M31.5392 48.271H30.3193V49.0757H31.5392V48.271Z" fill="black"/>
</g>
<defs>
<clipPath id="clip0">
<rect width="36.2764" height="58" fill="white"/>
</clipPath>
</defs>
</svg>
