<svg width="36" height="60" viewBox="0 0 36 60" fill="none" xmlns="http://www.w3.org/2000/svg">
<g clip-path="url(#clip0)">
<path d="M1.80859 5.78931C1.80859 3.94767 3.30915 2.44629 5.15178 2.44629H30.9044C32.7739 2.44629 34.2743 3.94767 34.2743 5.78931V54.2899C34.2743 56.1322 32.7739 57.6328 30.9044 57.6328H5.15178C3.30931 57.6328 1.80859 56.1322 1.80859 54.2899V5.78931Z" fill="white"/>
<path d="M3.19629 11.5122V5.78973C3.19629 4.71387 4.07605 3.83594 5.15207 3.83594H30.9047C32.0092 3.83594 32.8873 4.71387 32.8873 5.78973V11.5122H3.19629Z" fill="#004990"/>
<path d="M32.8855 12.9014H3.19629V47.1817H32.8855V12.9014Z" fill="#004990"/>
<path d="M26.626 8.70854C26.7395 8.87776 26.9951 9.07651 27.1638 9.16112C27.6463 9.4166 28.0728 9.50104 28.5242 9.50104C29.2329 9.50104 29.6576 9.18882 29.6576 8.73658C29.6576 8.19658 29.1179 8.11197 28.2976 8.00065C27.2503 7.85848 26.6835 7.37605 26.6835 6.52698C26.7104 5.67675 27.5059 5.02344 28.6662 5.02344C29.4577 5.02344 29.9977 5.19448 30.3378 5.3637V6.46941C30.2243 6.27133 29.9687 6.12915 29.7153 6.01684C29.3731 5.90237 29.0333 5.8458 28.6662 5.8458C28.0995 5.8458 27.7592 6.07258 27.7592 6.35776C27.7592 6.83721 28.2128 6.89477 29.2044 7.09369C30.1956 7.29144 30.791 7.7173 30.7623 8.59424C30.7336 9.61352 29.94 10.2944 28.5242 10.2944C27.8996 10.2944 27.1081 10.1802 26.626 9.9264V8.70854Z" fill="white"/>
<path d="M9.0328 6.66847C9.0328 7.17861 8.60827 7.37636 7.95695 7.37636H6.76762V5.93072H7.95695C8.60827 5.93072 9.0328 6.12947 9.0328 6.66847ZM9.76856 8.93465C9.5149 8.45354 9.31699 8.08558 8.94819 7.91454C9.74169 7.74532 10.1375 7.29192 10.1375 6.6119C10.1375 5.96058 9.85317 5.45127 9.31715 5.25253C8.97723 5.11035 8.55037 5.11035 7.89922 5.11035H5.29395C5.54943 5.27957 5.68978 5.78954 5.68978 6.24394V9.10469C5.68978 9.52923 5.54926 10.0681 5.29395 10.2104H7.1613C6.90781 10.0681 6.76762 9.52923 6.76762 9.10469V8.19673H7.55912C7.95695 8.19673 8.1834 8.3389 8.35262 8.65212C8.63498 9.10469 8.83505 9.72797 9.17498 10.2104H10.6754C10.224 9.89901 9.99535 9.41675 9.76856 8.93465Z" fill="white"/>
<path d="M13.7362 10.3516C14.4431 10.3516 15.0407 10.1526 15.4923 9.75506C16.0321 9.30349 16.3989 8.62231 16.3989 7.65976C16.3989 6.72608 16.0321 6.0172 15.4923 5.5628C15.0407 5.19484 14.4431 4.99609 13.7362 4.99609C13.0272 4.99609 12.4334 5.19484 11.9782 5.5628C11.4422 6.0172 11.0732 6.72608 11.0732 7.65976C11.0732 8.62231 11.4422 9.30349 11.9782 9.75506C12.4334 10.1526 13.0561 10.3516 13.7362 10.3516ZM12.6602 9.02013C12.3492 8.73678 12.207 8.2842 12.207 7.65976C12.207 7.06419 12.3492 6.61195 12.6602 6.30055C12.9139 6.0449 13.2828 5.87602 13.7362 5.87602C14.1895 5.87602 14.5584 6.0449 14.8121 6.30055C15.1253 6.61178 15.2942 7.06419 15.2942 7.65976C15.2942 8.28437 15.1252 8.73678 14.8121 9.02013C14.5583 9.27561 14.1895 9.44467 13.7362 9.44467C13.2828 9.44467 12.9139 9.27561 12.6602 9.02013Z" fill="white"/>
<path d="M21.1027 8.90561C20.8182 9.2754 20.2246 9.38805 19.5733 9.38805H18.5817V6.24394C18.5817 5.81841 18.7223 5.2794 18.9489 5.11035H17.1084C17.3617 5.27957 17.5059 5.81857 17.5059 6.24394V9.10469C17.5059 9.55892 17.3617 10.0394 17.1084 10.2104H20.9315L21.1027 8.90561Z" fill="white"/>
<path d="M25.7188 8.90561C25.4346 9.2754 24.8408 9.41675 24.1895 9.38805H23.1694V6.24394C23.1694 5.81841 23.3098 5.2794 23.5669 5.11035H21.7246C21.9781 5.27957 22.1221 5.81857 22.1221 6.24394V9.10469C22.1221 9.55892 21.9781 10.0681 21.7246 10.2371H25.5192L25.7188 8.90561Z" fill="white"/>
<path d="M35.9752 5.78911C35.9752 2.98493 33.7081 0.71875 30.905 0.71875H5.15226C2.34725 0.71875 0.0800781 2.98493 0.0800781 5.78911V54.2897C0.0800781 57.0967 2.34725 59.3619 5.15226 59.3619H30.9049C33.7079 59.3619 35.9752 57.0967 35.9752 54.2897V5.78911ZM1.80907 5.78911C1.80907 3.94747 3.30963 2.44609 5.15226 2.44609H30.9049C32.7744 2.44609 34.2748 3.94747 34.2748 5.78911V54.2897C34.2748 56.132 32.7744 57.6326 30.9049 57.6326H5.15226C3.30979 57.6326 1.80907 56.132 1.80907 54.2897V5.78911Z" fill="#004990"/>
<path d="M3.19629 48.5684V54.2899C3.19629 55.3695 4.07605 56.2457 5.15207 56.2457H30.9047C32.0092 56.2457 32.8873 55.3695 32.8873 54.2899V48.5684H3.19629Z" fill="#004990"/>
<path d="M15.9166 41.7131V34.0917C16.6525 34.0647 17.3614 34.0358 18.0705 33.9781C17.8148 33.3825 17.5593 32.7889 17.2481 32.2222C16.8234 32.2778 16.3722 32.2778 15.9166 32.3068V30.7217C14.925 30.9481 13.8493 31.1173 12.7446 31.2308V41.7131C12.7446 44.034 11.6668 44.6585 11.0156 45.0832H17.6439C17.0235 44.6585 15.9166 44.034 15.9166 41.7131Z" fill="white"/>
<path d="M31.3286 45.0565C30.7907 44.5453 30.1086 43.752 29.7706 42.1957C29.1479 39.333 27.8434 35.2252 25.0961 32.1647C27.7878 30.693 29.4304 28.3682 29.4304 25.5095C29.4573 23.4681 28.4101 21.3162 26.5408 20.0414C25.7474 19.5293 24.8134 19.1614 23.707 18.9346C24.1045 19.785 24.3584 20.6918 24.4158 21.5996C25.5762 22.5045 26.2008 23.8936 26.2008 25.5649C26.2008 27.6899 25.1248 30.1818 21.3574 31.4574C21.6665 32.0512 21.9777 32.6756 22.2334 33.2694C22.4331 33.2138 22.6309 33.1577 22.8308 33.1002C24.5868 35.1405 26.0009 38.3416 26.4255 41.3156C26.7388 43.4693 25.9741 44.5453 25.4651 45.0565H31.3286Z" fill="white"/>
<path d="M10.1668 28.8794V16.9816H14.6703C16.3146 17.0095 17.533 17.3496 18.4957 18.0278C19.7693 18.9344 20.4515 20.3796 20.4515 22.1086C20.4515 25.0251 18.438 28.7371 10.1668 28.8794ZM24.7282 41.6269C24.1611 41.1177 23.4833 40.3239 23.1699 38.7661C22.5473 35.9054 21.3002 31.8822 18.8086 29.0194C18.9201 28.9638 19.0065 28.9348 19.1178 28.8792C21.9519 27.4341 23.6809 25.0251 23.6809 22.0789C23.7079 20.0114 22.6589 17.8866 20.7913 16.6117C19.3176 15.6204 17.3351 15.2246 14.8124 15.2246H5.26562C5.91694 15.6491 6.99296 16.2718 6.99296 18.5945V38.257C6.99296 40.6066 5.91694 41.2023 5.26562 41.6269H11.8941C11.2715 41.2022 10.1668 40.6066 10.1668 38.257V30.6353C12.4897 30.6353 14.6703 30.3511 16.5109 29.8706C18.1843 31.8823 19.4312 34.9986 19.827 37.8593C20.1094 40.015 19.3736 41.1179 18.8643 41.627H24.7282V41.6269Z" fill="white"/>
<path d="M15.9168 27.1804V20.4656H19.4866C19.2332 19.7279 18.7777 19.1331 18.1571 18.6787H11.0156C11.6669 19.1041 12.7446 19.6998 12.7446 22.0504V27.9719C13.9341 27.8028 15.0098 27.5493 15.9168 27.1804Z" fill="white"/>
<path d="M22.4047 52.4224C22.4047 53.3832 22.9716 54.1209 23.963 54.1209C24.6717 54.1209 25.323 53.923 25.6057 53.5831L25.4347 54.6896C25.181 54.8011 24.7276 54.9433 23.9918 54.9433C22.4049 54.9433 21.2998 54.0074 21.2998 52.4224C21.2998 51.5734 21.6401 50.9201 22.1492 50.4955C22.6026 50.0979 23.2251 49.8711 23.9917 49.8711C24.7276 49.8711 25.1808 50.0131 25.4345 50.1553V51.2044C25.1251 50.8645 24.6715 50.6935 23.9628 50.6935C22.9716 50.6935 22.4047 51.4312 22.4047 52.4224Z" fill="white"/>
<path d="M8.86206 51.4581C8.86206 51.9402 8.4664 52.1381 7.84378 52.1381H6.71036V50.7799H7.84378C8.4664 50.7799 8.86206 50.9487 8.86206 51.4581ZM9.57111 53.6118C9.34433 53.1584 9.14625 52.7894 8.80632 52.6492C9.54407 52.507 9.91104 52.0535 9.93991 51.4312C9.93991 50.7799 9.65722 50.2974 9.14625 50.0977C8.83519 49.9844 8.41032 49.9844 7.78604 49.9844H5.32129C5.54973 50.1266 5.69025 50.6088 5.69025 51.0601V53.7826C5.69025 54.1783 5.54973 54.6894 5.32129 54.8585H7.07733C6.85253 54.6893 6.71036 54.1781 6.71036 53.7826V52.9027H7.44628C7.84378 52.9027 8.06857 53.0719 8.2416 53.3559C8.4951 53.7825 8.69318 54.3744 9.00424 54.8294L10.4509 54.8585C9.99565 54.5205 9.79956 54.092 9.57111 53.6118Z" fill="white"/>
<path d="M13.3402 54.9721C14.0184 54.9721 14.5851 54.7742 15.0096 54.4051C15.5188 53.9806 15.8897 53.3274 15.8897 52.4224C15.8897 51.5158 15.519 50.8645 15.0096 50.4089C14.5851 50.0707 14.0184 49.8711 13.3402 49.8711C12.6869 49.8711 12.1202 50.0707 11.6956 50.4089C11.1863 50.8645 10.8174 51.5158 10.8174 52.4224C10.8174 53.3274 11.1863 53.9807 11.6956 54.4051C12.1204 54.7742 12.6871 54.9721 13.3402 54.9721ZM12.3181 53.6982C12.0357 53.4406 11.8936 53.016 11.8936 52.4224C11.8936 51.8269 12.0357 51.4042 12.3181 51.118C12.5738 50.8647 12.9137 50.7223 13.3672 50.7223C13.7918 50.7223 14.1317 50.8645 14.3874 51.118C14.6697 51.4043 14.8121 51.8269 14.8121 52.4224C14.8121 53.016 14.6699 53.4407 14.3874 53.6982C14.1317 53.9517 13.7918 54.1209 13.3672 54.1209C12.9137 54.1209 12.5738 53.9519 12.3181 53.6982Z" fill="white"/>
<path d="M19.6848 49.9845C19.8003 50.0708 19.8559 50.1552 19.8272 50.2669C19.8272 50.382 19.7693 50.5513 19.6579 50.7223L18.6934 52.1094L17.7309 50.6934C17.6176 50.5242 17.5062 50.3553 17.5331 50.2113C17.56 50.1267 17.5908 50.0421 17.7023 49.9845H15.748C16.0863 50.1267 16.2572 50.382 16.511 50.751L18.0998 52.9875V53.7828C18.0998 54.1785 17.9576 54.6896 17.7309 54.8298H19.4869C19.2601 54.6896 19.1179 54.1785 19.1179 53.7828V52.9875L20.5646 50.9487C20.7914 50.6664 21.1028 50.1553 21.4427 49.9844H19.6848" fill="white"/>
<path d="M29.0913 54.065H27.8443V52.7336H29.7158L29.8271 51.9959H27.8443V50.7799H28.9492C29.5734 50.7799 30.0827 50.8064 30.3382 51.0601V49.9844H26.457C26.6838 50.1551 26.8242 50.6662 26.8242 51.0601V53.7826C26.8242 54.2053 26.6838 54.6894 26.457 54.8585H30.3669L30.5358 53.667C30.2518 54.0361 29.7159 54.065 29.0913 54.065Z" fill="white"/>
</g>
<defs>
<clipPath id="clip0">
<rect width="36" height="58.7281" fill="white" transform="translate(0 0.635742)"/>
</clipPath>
</defs>
</svg>
