<svg width="85" height="85" viewBox="0 0 85 85" fill="none" xmlns="http://www.w3.org/2000/svg">
<path d="M42.188 84.376C41.197 84.376 40.39 83.57 40.39 82.579V76.375L38.164 78.601C37.485 79.279 36.301 79.278 35.623 78.601C34.923 77.901 34.923 76.76 35.621 76.059L40.39 71.29V67.778L33.947 74.221C33.268 74.899 32.084 74.899 31.405 74.221C30.706 73.519 30.706 72.378 31.405 71.678L40.39 62.693V51.219C39.209 50.985 38.077 50.515 37.075 49.843L28.961 57.957V70.665C28.961 71.656 28.154 72.463 27.163 72.463C26.683 72.463 26.231 72.275 25.892 71.936C25.553 71.597 25.367 71.145 25.367 70.665L25.366 61.553L22.883 64.037V70.779C22.883 71.77 22.076 72.577 21.085 72.577C20.605 72.577 20.152 72.389 19.813 72.05C19.474 71.71 19.288 71.259 19.289 70.779L19.288 67.633L14.901 72.02C14.221 72.698 13.038 72.698 12.36 72.02C11.659 71.318 11.659 70.177 12.359 69.477L16.746 65.09H13.599C12.608 65.09 11.801 64.284 11.801 63.293C11.801 62.303 12.607 61.495 13.599 61.494H20.342L22.825 59.011H13.713C12.723 59.011 11.917 58.205 11.915 57.215C11.917 56.223 12.724 55.416 13.714 55.416H26.418L34.531 47.301C33.861 46.3 33.392 45.168 33.156 43.987H21.684L12.699 52.971C12.019 53.649 10.835 53.649 10.157 52.971C9.456 52.27 9.456 51.13 10.156 50.43L16.599 43.987H13.086L8.318 48.755C7.638 49.433 6.455 49.433 5.775 48.755C5.076 48.053 5.076 46.912 5.775 46.212L8.002 43.987H1.798C0.807 43.987 0 43.18 0 42.188C0 41.197 0.807 40.391 1.798 40.391H8.002L5.775 38.164C5.435 37.825 5.25 37.374 5.25 36.893C5.25 36.412 5.436 35.961 5.775 35.622C6.454 34.942 7.639 34.942 8.318 35.622L13.086 40.39H16.599L10.156 33.947C9.456 33.247 9.456 32.107 10.155 31.405C10.496 31.065 10.948 30.879 11.427 30.879C11.906 30.878 12.359 31.066 12.698 31.404L21.684 40.39H33.157C33.392 39.208 33.862 38.077 34.532 37.075L26.419 28.961H13.711C12.721 28.96 11.914 28.153 11.912 27.163C11.914 26.171 12.72 25.365 13.71 25.365H22.822L20.339 22.881H13.596C12.605 22.881 11.798 22.074 11.798 21.083C11.798 20.092 12.605 19.286 13.596 19.286H16.743L12.356 14.898C12.017 14.559 11.83 14.108 11.83 13.627C11.83 13.146 12.018 12.695 12.357 12.356C13.035 11.676 14.22 11.675 14.898 12.357L19.286 16.743V13.595C19.286 12.604 20.092 11.798 21.083 11.798C22.074 11.798 22.881 12.604 22.881 13.595V20.338L25.365 22.821V13.71C25.365 12.72 26.171 11.912 27.162 11.911C28.154 11.912 28.96 12.72 28.96 13.71V26.418L37.074 34.532C38.074 33.863 39.207 33.392 40.389 33.156V21.684L31.404 12.699C30.704 11.998 30.704 10.857 31.404 10.157C32.083 9.477 33.267 9.477 33.947 10.157L40.389 16.6V13.086L35.621 8.318C34.921 7.618 34.921 6.478 35.62 5.776C36.301 5.097 37.485 5.096 38.163 5.775L40.389 8.002V1.799C40.389 0.807 41.196 0 42.187 0C43.178 0 43.985 0.807 43.985 1.799V8.002L46.211 5.775C46.891 5.097 48.074 5.097 48.752 5.775C49.093 6.115 49.279 6.567 49.279 7.047C49.279 7.527 49.091 7.979 48.752 8.318L43.985 13.086V16.6L50.428 10.157C51.106 9.477 52.291 9.477 52.97 10.157C53.67 10.857 53.67 11.998 52.97 12.699L43.985 21.684V33.157C45.168 33.393 46.3 33.864 47.3 34.533L55.414 26.419V13.711C55.415 12.72 56.222 11.913 57.212 11.912C58.204 11.913 59.01 12.721 59.01 13.711V22.822L61.493 20.339V13.596C61.495 12.605 62.302 11.799 63.292 11.799C64.282 11.799 65.089 12.605 65.089 13.596V16.744L69.476 12.357C70.155 11.677 71.339 11.677 72.019 12.357C72.357 12.696 72.544 13.147 72.544 13.628C72.544 14.109 72.356 14.56 72.017 14.899L67.631 19.286L70.779 19.287C71.258 19.287 71.71 19.475 72.05 19.813C72.39 20.153 72.576 20.604 72.576 21.084C72.576 22.075 71.769 22.882 70.778 22.882H64.035L61.552 25.366H70.664C71.654 25.366 72.46 26.172 72.462 27.162C72.46 28.154 71.654 28.961 70.665 28.962H57.958L49.845 37.076C50.515 38.078 50.985 39.21 51.22 40.391H62.694L71.679 31.405C72.019 31.066 72.47 30.88 72.95 30.88C73.429 30.879 73.881 31.067 74.22 31.405C74.561 31.745 74.747 32.197 74.747 32.677C74.747 33.157 74.559 33.609 74.22 33.948L67.778 40.391H71.291L76.059 35.623C76.738 34.943 77.923 34.943 78.602 35.623C78.942 35.962 79.127 36.413 79.127 36.894C79.127 37.375 78.941 37.826 78.602 38.165L76.376 40.392H82.579C83.57 40.392 84.377 41.198 84.377 42.189C84.377 43.181 83.57 43.988 82.579 43.988H76.377L78.602 46.213C79.301 46.913 79.301 48.054 78.602 48.755C77.922 49.435 76.739 49.434 76.059 48.756L71.291 43.988H67.778L74.221 50.431C74.56 50.77 74.747 51.221 74.747 51.702C74.747 52.181 74.559 52.633 74.221 52.973C73.541 53.651 72.359 53.651 71.679 52.973L62.694 43.989H51.219C50.983 45.17 50.514 46.302 49.844 47.303L57.958 55.418H70.665C71.655 55.418 72.461 56.225 72.463 57.215C72.461 58.207 71.655 59.013 70.665 59.013H61.553L64.037 61.496H70.779C71.771 61.497 72.577 62.305 72.577 63.295C72.577 64.286 71.771 65.092 70.78 65.092H67.632L72.019 69.479C72.719 70.179 72.719 71.32 72.02 72.022C71.338 72.7 70.157 72.7 69.477 72.022L65.09 67.635V70.782C65.09 71.773 64.283 72.579 63.293 72.579C62.303 72.579 61.496 71.772 61.494 70.782V64.038L59.011 61.554V70.667C59.011 71.658 58.205 72.464 57.214 72.464C56.223 72.464 55.416 71.657 55.415 70.667V57.959L47.301 49.845C46.297 50.516 45.165 50.986 43.986 51.22V62.694L52.971 71.679C53.67 72.379 53.67 73.52 52.971 74.221C52.291 74.901 51.107 74.9 50.429 74.222L43.986 67.779V71.291L48.754 76.059C49.454 76.761 49.454 77.902 48.754 78.602C48.074 79.28 46.892 79.28 46.212 78.602L43.986 76.376V82.58C43.986 83.57 43.179 84.376 42.188 84.376ZM41.39 73.96V82.578C41.39 83.017 41.748 83.375 42.188 83.375C42.628 83.375 42.986 83.018 42.986 82.578V73.96L46.919 77.893C47.22 78.194 47.745 78.194 48.048 77.893C48.359 77.582 48.358 77.076 48.046 76.764L42.986 71.703V65.363L51.136 73.513C51.437 73.814 51.963 73.814 52.264 73.513C52.575 73.201 52.575 72.695 52.264 72.384L42.986 63.106V50.369L43.412 50.306C44.725 50.109 45.987 49.585 47.06 48.792L47.407 48.536L56.416 57.545V70.666C56.417 71.105 56.774 71.464 57.215 71.464C57.654 71.464 58.012 71.107 58.012 70.667V59.139L62.495 63.623V70.779C62.495 71.218 62.854 71.577 63.294 71.577C63.734 71.577 64.091 71.22 64.091 70.78V65.218L70.185 71.312C70.486 71.613 71.011 71.613 71.314 71.312C71.624 71 71.625 70.494 71.313 70.183L65.219 64.089H70.782C71.221 64.089 71.579 63.732 71.579 63.292C71.579 62.852 71.221 62.494 70.781 62.493H63.625L59.141 58.01H70.667C71.106 58.01 71.465 57.653 71.465 57.212C71.465 56.774 71.107 56.415 70.667 56.415H57.544L48.534 47.405L48.791 47.059C49.583 45.988 50.106 44.726 50.305 43.411L50.369 42.985H63.106L72.384 52.262C72.685 52.563 73.21 52.563 73.513 52.262C73.663 52.112 73.745 51.911 73.745 51.699C73.745 51.487 73.663 51.286 73.513 51.136L65.362 42.986H71.703L76.764 48.047C77.065 48.348 77.592 48.348 77.893 48.047C78.204 47.735 78.204 47.229 77.893 46.918L73.959 42.986H82.577C83.017 42.986 83.375 42.628 83.375 42.187C83.375 41.748 83.018 41.39 82.577 41.39H73.96L77.893 37.456C78.043 37.306 78.125 37.105 78.125 36.893C78.125 36.681 78.043 36.48 77.893 36.33C77.591 36.029 77.066 36.029 76.764 36.33L71.703 41.391H65.362L73.512 33.241C73.663 33.091 73.745 32.89 73.745 32.678C73.745 32.464 73.662 32.264 73.511 32.113C73.362 31.963 73.161 31.88 72.948 31.881C72.734 31.881 72.534 31.963 72.384 32.113L63.106 41.392H50.369L50.306 40.966C50.108 39.651 49.584 38.389 48.792 37.317L48.535 36.971L57.544 27.962H70.666C71.104 27.961 71.464 27.603 71.464 27.162C71.464 26.724 71.106 26.366 70.666 26.366H59.139L63.622 21.882H70.779C71.218 21.882 71.577 21.524 71.577 21.084C71.577 20.644 71.221 20.287 70.782 20.287L65.218 20.286L71.312 14.192C71.463 14.042 71.545 13.841 71.545 13.629C71.545 13.417 71.463 13.216 71.313 13.066C71.01 12.763 70.485 12.763 70.184 13.066L64.09 19.16V13.597C64.09 13.158 63.733 12.8 63.293 12.8C62.853 12.8 62.494 13.157 62.494 13.598V20.754L58.011 25.237V13.711C58.011 13.272 57.653 12.913 57.213 12.912C56.775 12.913 56.416 13.271 56.415 13.712V26.832L47.406 35.842L47.058 35.585C45.99 34.794 44.728 34.27 43.41 34.07L42.985 34.006V21.27L52.263 11.992C52.574 11.68 52.574 11.175 52.263 10.864C51.961 10.563 51.435 10.563 51.136 10.864L42.985 19.014V12.672L48.046 7.611C48.197 7.461 48.279 7.26 48.279 7.048C48.279 6.834 48.196 6.634 48.045 6.483C47.746 6.182 47.219 6.182 46.918 6.483L42.985 10.417V1.799C42.985 1.359 42.627 1 42.187 1C41.747 1 41.389 1.358 41.389 1.799V10.416L37.456 6.482C37.155 6.181 36.629 6.181 36.327 6.482C36.018 6.794 36.017 7.3 36.328 7.611L41.389 12.672V19.014L33.239 10.864C32.937 10.563 32.412 10.563 32.111 10.864C31.8 11.175 31.8 11.68 32.111 11.992L41.389 21.27V34.006L40.964 34.07C39.646 34.269 38.384 34.794 37.316 35.585L36.968 35.842L27.959 26.832V13.711C27.959 13.272 27.601 12.913 27.161 12.912C26.722 12.913 26.364 13.271 26.364 13.711V25.236L21.88 20.753V13.596C21.88 13.157 21.523 12.799 21.082 12.799C20.643 12.799 20.285 13.156 20.285 13.596V19.159L14.19 13.065C13.887 12.761 13.363 12.763 13.063 13.065C12.911 13.215 12.829 13.416 12.829 13.628C12.829 13.84 12.911 14.041 13.061 14.191L19.156 20.286H13.594C13.155 20.286 12.796 20.643 12.796 21.083C12.796 21.523 13.154 21.881 13.594 21.881H20.751L25.234 26.365H13.71C13.271 26.365 12.912 26.722 12.912 27.163C12.912 27.601 13.271 27.96 13.711 27.961H26.832L35.841 36.97L35.584 37.316C34.792 38.388 34.269 39.65 34.07 40.965L34.007 41.391H21.27L11.992 32.112C11.842 31.962 11.641 31.879 11.428 31.88C11.214 31.88 11.014 31.962 10.863 32.112C10.554 32.424 10.553 32.93 10.864 33.241L19.014 41.391H12.673L7.612 36.33C7.31 36.029 6.785 36.029 6.483 36.33C6.333 36.48 6.251 36.681 6.251 36.893C6.251 37.105 6.333 37.306 6.483 37.456L10.417 41.39H1.798C1.358 41.39 1 41.747 1 42.187C1 42.627 1.357 42.986 1.798 42.986H10.416L6.482 46.918C6.171 47.229 6.171 47.735 6.482 48.048C6.783 48.347 7.31 48.348 7.611 48.047L12.672 42.986H19.013L10.863 51.136C10.552 51.447 10.553 51.952 10.864 52.263C11.163 52.564 11.69 52.564 11.993 52.263L21.27 42.986H34.006L34.07 43.412C34.268 44.728 34.792 45.989 35.584 47.059L35.841 47.406L26.832 56.416H13.711C13.272 56.416 12.912 56.774 12.912 57.215C12.912 57.653 13.27 58.011 13.71 58.011H25.236L20.753 62.494H13.596C13.157 62.495 12.798 62.853 12.798 63.293C12.798 63.733 13.156 64.09 13.596 64.09H19.158L13.064 70.184C12.752 70.495 12.753 71.001 13.065 71.313C13.364 71.614 13.891 71.614 14.192 71.313L20.286 65.219L20.287 70.781C20.286 70.994 20.37 71.193 20.519 71.344C20.67 71.495 20.871 71.578 21.083 71.578C21.523 71.578 21.881 71.22 21.881 70.78V63.624L26.364 59.14L26.365 70.667C26.365 70.88 26.447 71.079 26.597 71.23C26.747 71.381 26.949 71.464 27.161 71.464C27.6 71.464 27.959 71.106 27.959 70.666V57.543L36.968 48.534L37.314 48.79C38.387 49.584 39.649 50.107 40.963 50.305L41.389 50.368V63.106L32.111 72.384C31.8 72.695 31.8 73.201 32.111 73.514C32.411 73.813 32.937 73.814 33.239 73.513L41.389 65.363V71.703L36.328 76.764C36.018 77.076 36.018 77.582 36.329 77.893C36.628 78.194 37.155 78.194 37.456 77.893L41.39 73.96ZM42.188 48.407C41.727 48.407 41.252 48.35 40.776 48.24C40.118 48.087 39.489 47.825 38.909 47.463C38.105 46.962 37.416 46.273 36.914 45.469C36.552 44.888 36.291 44.26 36.138 43.601C36.027 43.126 35.97 42.651 35.97 42.189C35.97 41.728 36.027 41.253 36.138 40.779C36.292 40.117 36.553 39.488 36.914 38.91C37.417 38.104 38.106 37.415 38.909 36.915C39.487 36.555 40.116 36.293 40.776 36.138C41.727 35.917 42.649 35.917 43.6 36.138C44.26 36.293 44.889 36.555 45.467 36.916C46.27 37.415 46.959 38.104 47.462 38.91C47.823 39.488 48.084 40.117 48.238 40.779C48.349 41.254 48.406 41.728 48.406 42.189C48.406 42.651 48.349 43.127 48.238 43.601C48.086 44.26 47.824 44.888 47.463 45.469C46.961 46.272 46.272 46.962 45.467 47.464C44.886 47.826 44.258 48.087 43.599 48.24C43.124 48.35 42.649 48.407 42.188 48.407ZM42.188 36.969C41.803 36.969 41.405 37.017 41.004 37.111C40.45 37.24 39.924 37.46 39.438 37.762C38.764 38.182 38.184 38.761 37.762 39.438C37.459 39.923 37.24 40.451 37.11 41.004C37.016 41.405 36.969 41.804 36.969 42.188C36.969 42.574 37.016 42.972 37.11 43.374C37.239 43.926 37.459 44.452 37.762 44.939C38.184 45.614 38.762 46.194 39.438 46.615C39.924 46.918 40.452 47.137 41.003 47.265C41.806 47.453 42.57 47.453 43.371 47.265C43.924 47.137 44.451 46.918 44.937 46.615C45.613 46.194 46.193 45.614 46.613 44.939C46.918 44.452 47.136 43.925 47.265 43.374C47.359 42.973 47.406 42.574 47.406 42.188C47.406 41.804 47.359 41.406 47.265 41.004C47.135 40.45 46.915 39.923 46.613 39.438C46.191 38.761 45.611 38.182 44.937 37.763C44.451 37.459 43.924 37.24 43.371 37.111C42.971 37.017 42.573 36.969 42.188 36.969Z" fill="#96B8BF"/>
</svg>
